<svg width="32" height="32" viewBox="0 0 32 32" fill="none" xmlns="http://www.w3.org/2000/svg">
<path d="M29 5.99978H3H2.92C2.85032 5.99031 2.77968 5.99031 2.71 5.99978L2.54 6.06978C2.4856 6.09598 2.43511 6.12964 2.39 6.16978C2.33311 6.20846 2.28252 6.25568 2.24 6.30978L2.18 6.36978C2.17624 6.39966 2.17624 6.42989 2.18 6.45978C2.14734 6.52041 2.12055 6.58404 2.1 6.64978C2.05804 6.72939 2.02452 6.81318 2 6.89978V6.99978V24.9998C2 25.265 2.10536 25.5193 2.29289 25.7069C2.48043 25.8944 2.73478 25.9998 3 25.9998H29C29.2652 25.9998 29.5196 25.8944 29.7071 25.7069C29.8946 25.5193 30 25.265 30 24.9998V6.99978C30 6.73456 29.8946 6.48021 29.7071 6.29267C29.5196 6.10513 29.2652 5.99978 29 5.99978ZM16 14.8098L6.2 7.99978H27.09L16 14.8098ZM4 23.9998V8.90978L15.43 16.8198C15.4879 16.8537 15.5481 16.8838 15.61 16.9098H15.69C15.7883 16.955 15.8928 16.9853 16 16.9998C16.1422 16.996 16.282 16.9619 16.41 16.8998H16.48L28 9.78978V23.9998H4Z" fill="black"/>
</svg>
