<svg width="220" height="78" viewBox="0 0 220 78" fill="none" xmlns="http://www.w3.org/2000/svg">
<g clip-path="url(#clip0_78_78)">
<path d="M3.93256 66.4834C4.73695 66.4834 5.34024 66.6655 5.72009 67.0524C6.12228 67.4393 6.30104 68.0083 6.30104 68.7594C6.30104 69.1691 6.21166 69.5105 6.01056 69.8064C5.80947 70.1023 5.54134 70.3527 5.16149 70.512C4.78164 70.6713 4.31241 70.7624 3.77615 70.7624L3.82084 70.1934C4.08897 70.1934 4.37944 70.2389 4.7146 70.3072C5.04977 70.3754 5.36258 70.512 5.69775 70.6941C6.01056 70.8762 6.27869 71.1265 6.47979 71.4679C6.68089 71.7866 6.79261 72.219 6.79261 72.7198C6.79261 73.2888 6.70323 73.744 6.52448 74.1081C6.34572 74.4723 6.09994 74.7454 5.80947 74.9275C5.51899 75.1324 5.20618 75.2462 4.87101 75.3372C4.53585 75.4055 4.22303 75.451 3.91022 75.451H0.759699C0.536258 75.451 0.357506 75.3827 0.223441 75.2234C0.0670323 75.0641 0 74.882 0 74.6772V67.28C0 67.0524 0.0670323 66.8703 0.223441 66.7338C0.357506 66.5744 0.558603 66.5062 0.759699 66.5062H3.93256V66.4834ZM3.70912 67.9856H1.47471L1.63112 67.7807V70.1023L1.47471 69.9885H3.73146C3.97725 69.9885 4.20069 69.8975 4.37944 69.7381C4.58054 69.5788 4.66992 69.3512 4.66992 69.0326C4.66992 68.6684 4.58054 68.3953 4.40179 68.236C4.22303 68.0766 3.97725 67.9856 3.68678 67.9856M3.7985 71.4907H1.5194L1.63112 71.3997V74.1081L1.49705 73.9716H3.88787C4.26772 73.9716 4.58054 73.8578 4.80398 73.6529C5.02742 73.4481 5.13914 73.1294 5.13914 72.7198C5.13914 72.3328 5.07211 72.0597 4.9157 71.8776C4.75929 71.7183 4.58054 71.6045 4.37944 71.559C4.17835 71.5135 3.97725 71.4907 3.7985 71.4907Z" fill="#008D36"/>
<path d="M13.0713 68.6001C13.2947 68.6001 13.4735 68.6684 13.6076 68.8277C13.7416 68.987 13.831 69.1691 13.831 69.374V72.6287C13.831 73.5391 13.5852 74.2447 13.0936 74.7682C12.6021 75.2917 11.8871 75.5648 10.9486 75.5648C10.0102 75.5648 9.31749 75.2917 8.82592 74.7682C8.33435 74.2447 8.08856 73.5164 8.08856 72.6287V69.374C8.08856 69.1463 8.15559 68.9643 8.312 68.8277C8.44607 68.6684 8.62482 68.6001 8.84826 68.6001C9.0717 68.6001 9.25046 68.6684 9.38452 68.8277C9.51858 68.987 9.60796 69.1691 9.60796 69.374V72.6287C9.60796 73.1522 9.71968 73.5391 9.94312 73.7895C10.1666 74.0398 10.5017 74.1764 10.971 74.1764C11.4402 74.1764 11.7753 74.0626 11.9988 73.7895C12.2222 73.5391 12.3339 73.1522 12.3339 72.6287V69.374C12.3339 69.1463 12.401 68.9643 12.5574 68.8277C12.6914 68.6684 12.8925 68.6001 13.0936 68.6001" fill="#008D36"/>
<path d="M15.0823 74.3811C14.9929 74.2673 14.9706 74.108 14.9706 73.9259C14.9706 73.7438 15.0823 73.5845 15.3057 73.4479C15.4398 73.3569 15.5738 73.3341 15.7303 73.3341C15.8867 73.3341 16.0207 73.4252 16.1771 73.5617C16.4229 73.8121 16.6687 73.9942 16.9368 74.1307C17.205 74.2673 17.5401 74.3356 17.9423 74.3356C18.0764 74.3356 18.2104 74.3128 18.3669 74.29C18.5233 74.2673 18.6573 74.199 18.769 74.0852C18.8808 73.9714 18.9478 73.8121 18.9478 73.5845C18.9478 73.4024 18.8808 73.2431 18.769 73.1293C18.635 73.0155 18.4786 72.9244 18.2775 72.8561C18.0764 72.7879 17.8529 72.6968 17.5848 72.6285C17.3167 72.5603 17.0486 72.4692 16.7804 72.3782C16.5123 72.2871 16.2665 72.1733 16.0431 72.014C15.8196 71.8547 15.6409 71.6726 15.4845 71.4222C15.3504 71.1719 15.261 70.8532 15.261 70.4891C15.261 70.0566 15.3727 69.6924 15.6185 69.3966C15.842 69.1007 16.1548 68.8731 16.5346 68.7137C16.9145 68.5544 17.2943 68.4634 17.6965 68.4634C17.9647 68.4634 18.2328 68.4861 18.5233 68.5544C18.8137 68.6227 19.0819 68.7137 19.3276 68.8731C19.5958 69.0096 19.7969 69.1917 19.9756 69.4193C20.065 69.5559 20.132 69.6924 20.132 69.8745C20.132 70.0566 20.065 70.2159 19.8863 70.3525C19.7522 70.4435 19.6181 70.5118 19.4394 70.4891C19.283 70.4891 19.1266 70.4208 19.0148 70.307C18.8808 70.1249 18.6797 69.9656 18.4339 69.8518C18.1881 69.738 17.92 69.6924 17.6072 69.6924C17.4731 69.6924 17.339 69.6924 17.205 69.738C17.0486 69.7607 16.9368 69.829 16.8251 69.92C16.7134 70.0111 16.6687 70.1704 16.6687 70.3753C16.6687 70.5801 16.7357 70.7167 16.8475 70.8532C16.9815 70.967 17.1379 71.0581 17.3614 71.1263C17.5848 71.1946 17.8083 71.2629 18.054 71.3312C18.2998 71.3995 18.568 71.4905 18.8137 71.5816C19.0819 71.6726 19.3053 71.8092 19.5287 71.9457C19.7522 72.105 19.9309 72.2871 20.065 72.5375C20.1991 72.7879 20.2661 73.0837 20.2661 73.4707C20.2661 73.9031 20.132 74.2901 19.8863 74.5859C19.6405 74.8818 19.3276 75.1322 18.9478 75.2915C18.5679 75.4508 18.1881 75.5191 17.7859 75.5191C17.2943 75.5191 16.8028 75.4281 16.3112 75.246C15.8196 75.0639 15.4174 74.768 15.0823 74.3128" fill="#008D36"/>
<path d="M22.1653 67.7579C21.8749 67.7579 21.6738 67.7123 21.5621 67.6213C21.4503 67.5303 21.3833 67.3709 21.3833 67.1206V66.8702C21.3833 66.6198 21.4503 66.4605 21.5844 66.3695C21.7185 66.2784 21.9196 66.2329 22.1877 66.2329C22.4782 66.2329 22.6793 66.2784 22.8133 66.3695C22.925 66.4605 22.9921 66.6198 22.9921 66.8702V67.1206C22.9921 67.3709 22.925 67.5303 22.8133 67.6213C22.6793 67.7123 22.4782 67.7579 22.1877 67.7579M22.9474 74.6543C22.9474 74.8819 22.8804 75.064 22.7239 75.2005C22.5899 75.3598 22.3888 75.4281 22.1877 75.4281C21.9866 75.4281 21.7855 75.3598 21.6514 75.2005C21.5174 75.0412 21.428 74.8591 21.428 74.6543V69.3738C21.428 69.1462 21.495 68.9642 21.6514 68.8276C21.7855 68.6683 21.9642 68.6 22.1877 68.6C22.4111 68.6 22.5899 68.6683 22.7239 68.8276C22.858 68.9869 22.9474 69.169 22.9474 69.3738V74.6543Z" fill="#008D36"/>
<path d="M28.0642 68.4632C28.6898 68.4632 29.1591 68.5998 29.4719 68.8501C29.7847 69.1232 30.0081 69.4646 30.1422 69.8971C30.2539 70.3295 30.321 70.8303 30.321 71.3538V74.6313C30.321 74.8589 30.2539 75.041 30.0975 75.1775C29.9635 75.3368 29.7847 75.4051 29.5613 75.4051C29.3378 75.4051 29.1591 75.3368 29.025 75.1775C28.8909 75.0182 28.8016 74.8361 28.8016 74.6313V71.3538C28.8016 71.0806 28.7569 70.8303 28.6898 70.6027C28.6228 70.3751 28.4887 70.193 28.31 70.0564C28.1312 69.9199 27.8631 69.8516 27.5279 69.8516C27.1928 69.8516 26.9023 69.9199 26.6789 70.0564C26.4554 70.193 26.2767 70.3751 26.1426 70.6027C26.0085 70.8303 25.9639 71.0806 25.9639 71.3538V74.6313C25.9639 74.8589 25.8968 75.041 25.7404 75.1775C25.6064 75.3368 25.4276 75.4051 25.2042 75.4051C24.9807 75.4051 24.802 75.3368 24.6679 75.1775C24.5338 75.0182 24.4445 74.8361 24.4445 74.6313V69.3508C24.4445 69.1232 24.5115 68.9412 24.6679 68.8046C24.802 68.6453 24.9807 68.577 25.2042 68.577C25.4276 68.577 25.6064 68.6453 25.7404 68.8046C25.8745 68.9412 25.9639 69.146 25.9639 69.3508V69.8971L25.7851 69.8516C25.8521 69.715 25.9639 69.5557 26.1203 69.3736C26.2767 69.1915 26.4331 69.055 26.6118 68.9184C26.8129 68.7818 27.014 68.6453 27.2598 68.577C27.5056 68.4859 27.7737 68.4404 28.0419 68.4404" fill="#008D36"/>
<path d="M35.1249 75.5646C34.4099 75.5646 33.7843 75.4053 33.2704 75.1094C32.7565 74.8135 32.3543 74.4039 32.0638 73.8804C31.7733 73.3569 31.6393 72.7651 31.6393 72.105C31.6393 71.3312 31.7957 70.6939 32.1085 70.1477C32.4213 69.6014 32.8011 69.1917 33.3151 68.8958C33.8066 68.5999 34.3429 68.4634 34.8791 68.4634C35.3037 68.4634 35.7059 68.5544 36.0857 68.7365C36.4656 68.9186 36.8007 69.169 37.0912 69.4648C37.3817 69.7835 37.6051 70.1249 37.7839 70.5346C37.9626 70.9443 38.052 71.3767 38.052 71.8319C38.052 72.0368 37.9626 72.1961 37.8062 72.3327C37.6498 72.4692 37.4711 72.5147 37.27 72.5147H32.466L32.0861 71.2402H36.689L36.4209 71.4905V71.1491C36.4209 70.8987 36.3092 70.6711 36.1751 70.4891C36.0187 70.2842 35.8176 70.1477 35.5942 70.0111C35.3707 69.8973 35.1249 69.829 34.8568 69.829C34.5887 69.829 34.3652 69.8745 34.1641 69.9428C33.963 70.0111 33.7619 70.1249 33.6055 70.2842C33.4491 70.4435 33.3151 70.6711 33.2257 70.9443C33.1363 71.2174 33.0916 71.5588 33.0916 71.9912C33.0916 72.4465 33.181 72.8334 33.3821 73.152C33.5608 73.4707 33.8066 73.721 34.1194 73.8804C34.4099 74.0397 34.7227 74.1307 35.0579 74.1307C35.3707 74.1307 35.6165 74.108 35.7953 74.0624C35.974 74.0169 36.1304 73.9486 36.2421 73.8804C36.3539 73.8121 36.4656 73.7438 36.555 73.6983C36.7114 73.63 36.8454 73.5845 36.9795 73.5845C37.1582 73.5845 37.3147 73.6528 37.4487 73.7666C37.5828 73.8804 37.6275 74.0397 37.6275 74.2218C37.6275 74.4494 37.5158 74.6542 37.27 74.8363C37.0465 75.0184 36.7561 75.1777 36.3539 75.337C35.9517 75.4963 35.5495 75.5419 35.1473 75.5419" fill="#008D36"/>
<path d="M38.9904 74.3811C38.9011 74.2673 38.8787 74.108 38.8787 73.9259C38.8787 73.7438 38.9904 73.5845 39.2139 73.4479C39.3479 73.3569 39.482 73.3341 39.6384 73.3341C39.7948 73.3341 39.9289 73.4252 40.0853 73.5617C40.3311 73.8121 40.5769 73.9942 40.845 74.1307C41.1131 74.2673 41.4483 74.3356 41.8505 74.3356C41.9846 74.3356 42.1186 74.3128 42.275 74.29C42.4314 74.2673 42.5655 74.199 42.6772 74.0852C42.7889 73.9714 42.856 73.8121 42.856 73.5845C42.856 73.4024 42.7889 73.2431 42.6772 73.1293C42.5432 73.0155 42.3867 72.9244 42.1856 72.8561C41.9846 72.7879 41.7611 72.6968 41.493 72.6285C41.2249 72.5603 40.9567 72.4692 40.6886 72.3782C40.4205 72.2871 40.1747 72.1733 39.9512 72.014C39.7278 71.8547 39.549 71.6726 39.3926 71.4222C39.2586 71.1719 39.1692 70.8532 39.1692 70.4891C39.1692 70.0566 39.2809 69.6924 39.5267 69.3966C39.7501 69.1007 40.063 68.8731 40.4428 68.7137C40.8227 68.5544 41.2025 68.4634 41.6047 68.4634C41.8728 68.4634 42.141 68.4861 42.4314 68.5544C42.7219 68.6227 42.99 68.7137 43.2358 68.8731C43.504 69.0096 43.705 69.1917 43.8838 69.4193C43.9732 69.5559 44.0402 69.6924 44.0402 69.8745C44.0402 70.0566 43.9732 70.2159 43.7944 70.3525C43.6604 70.4435 43.5263 70.5118 43.3475 70.4891C43.1911 70.4891 43.0347 70.4208 42.923 70.307C42.7889 70.1249 42.5878 69.9656 42.3421 69.8518C42.0963 69.738 41.8281 69.6924 41.5153 69.6924C41.3813 69.6924 41.2472 69.6924 41.1131 69.738C40.9567 69.7607 40.845 69.829 40.7333 69.92C40.6216 70.0111 40.5769 70.1704 40.5769 70.3753C40.5769 70.5801 40.6439 70.7167 40.7556 70.8532C40.8897 70.967 41.0461 71.0581 41.2695 71.1263C41.493 71.1946 41.7164 71.2629 41.9622 71.3312C42.208 71.3995 42.4761 71.4905 42.7219 71.5816C42.99 71.6726 43.2135 71.8092 43.4369 71.9457C43.6604 72.105 43.8391 72.2871 43.9732 72.5375C44.1072 72.7879 44.1743 73.0837 44.1743 73.4707C44.1743 73.9031 44.0402 74.2901 43.7944 74.5859C43.5486 74.8818 43.2358 75.1322 42.856 75.2915C42.4761 75.4508 42.0963 75.5191 41.6941 75.5191C41.2025 75.5191 40.7109 75.4281 40.2194 75.246C39.7278 75.0639 39.3256 74.768 38.9904 74.3128" fill="#008D36"/>
<path d="M45.0234 74.3811C44.934 74.2673 44.9117 74.108 44.9117 73.9259C44.9117 73.7438 45.0234 73.5845 45.2468 73.4479C45.3809 73.3569 45.5149 73.3341 45.6714 73.3341C45.8278 73.3341 45.9618 73.4252 46.1182 73.5617C46.364 73.8121 46.6098 73.9942 46.8779 74.1307C47.1461 74.2673 47.4812 74.3356 47.8834 74.3356C48.0175 74.3356 48.1515 74.3128 48.308 74.29C48.4644 74.2673 48.5984 74.199 48.7101 74.0852C48.8219 73.9714 48.8889 73.8121 48.8889 73.5845C48.8889 73.4024 48.8219 73.2431 48.7101 73.1293C48.5761 73.0155 48.4197 72.9244 48.2186 72.8561C48.0175 72.7879 47.794 72.6968 47.5259 72.6285C47.2578 72.5603 46.9897 72.4692 46.7215 72.3782C46.4534 72.2871 46.2076 72.1733 45.9842 72.014C45.7607 71.8547 45.582 71.6726 45.4256 71.4222C45.2915 71.1719 45.2021 70.8532 45.2021 70.4891C45.2021 70.0566 45.3138 69.6924 45.5596 69.3966C45.7831 69.1007 46.0959 68.8731 46.4757 68.7137C46.8556 68.5544 47.2354 68.4634 47.6376 68.4634C47.9058 68.4634 48.1739 68.4861 48.4644 68.5544C48.7548 68.6227 49.023 68.7137 49.2687 68.8731C49.5369 69.0096 49.738 69.1917 49.9167 69.4193C50.0061 69.5559 50.0731 69.6924 50.0731 69.8745C50.0731 70.0566 50.0061 70.2159 49.8274 70.3525C49.6933 70.4435 49.5592 70.5118 49.3805 70.4891C49.2241 70.4891 49.0677 70.4208 48.9559 70.307C48.8219 70.1249 48.6208 69.9656 48.375 69.8518C48.1292 69.738 47.8611 69.6924 47.5483 69.6924C47.4142 69.6924 47.2801 69.6924 47.1461 69.738C46.9897 69.7607 46.8779 69.829 46.7662 69.92C46.6545 70.0111 46.6098 70.1704 46.6098 70.3753C46.6098 70.5801 46.6768 70.7167 46.7886 70.8532C46.9226 70.967 47.079 71.0581 47.3025 71.1263C47.5259 71.1946 47.7494 71.2629 47.9951 71.3312C48.2409 71.3995 48.5091 71.4905 48.7548 71.5816C49.023 71.6726 49.2464 71.8092 49.4698 71.9457C49.6933 72.105 49.872 72.2871 50.0061 72.5375C50.1402 72.7879 50.2072 73.0837 50.2072 73.4707C50.2072 73.9031 50.0731 74.2901 49.8274 74.5859C49.5816 74.8818 49.2687 75.1322 48.8889 75.2915C48.509 75.4508 48.1292 75.5191 47.727 75.5191C47.2354 75.5191 46.7439 75.4281 46.2523 75.246C45.7607 75.0639 45.3585 74.768 45.0234 74.3128" fill="#008D36"/>
<path d="M57.9383 75.5646C57.3573 75.5646 56.8211 75.4963 56.3518 75.337C55.8826 75.1776 55.4357 74.9273 55.0112 74.5404C54.8995 74.4493 54.8101 74.3355 54.7654 74.2217C54.6984 74.1079 54.676 73.9713 54.676 73.8575C54.676 73.6527 54.7431 73.4934 54.8771 73.3341C55.0112 73.1747 55.1899 73.1064 55.391 73.1064C55.5474 73.1064 55.7039 73.152 55.8156 73.2658C56.1284 73.5389 56.4412 73.721 56.754 73.8575C57.0668 73.9941 57.4467 74.0624 57.9159 74.0624C58.2287 74.0624 58.5192 74.0169 58.765 73.9031C59.0331 73.812 59.2342 73.6755 59.3906 73.5161C59.547 73.3568 59.6364 73.152 59.6364 72.9471C59.6364 72.6968 59.5694 72.4692 59.413 72.2871C59.2566 72.105 59.0331 71.9684 58.7203 71.8319C58.4075 71.7181 58.0276 71.6043 57.5361 71.536C57.0892 71.4677 56.687 71.3539 56.3518 71.2173C56.0167 71.0808 55.7262 70.8987 55.5028 70.6711C55.2793 70.4435 55.1006 70.1931 54.9888 69.8972C54.8771 69.6013 54.8101 69.2827 54.8101 68.8958C54.8101 68.3495 54.9442 67.8715 55.2346 67.4846C55.5251 67.0977 55.905 66.8018 56.3742 66.597C56.8434 66.3921 57.3797 66.2783 57.9606 66.2783C58.4969 66.2783 59.0108 66.3694 59.48 66.5287C59.9492 66.688 60.3291 66.9156 60.6196 67.166C60.8653 67.3708 60.9771 67.5984 60.9771 67.8488C60.9771 68.0309 60.91 68.213 60.776 68.3723C60.6419 68.5316 60.4631 68.5999 60.262 68.5999C60.128 68.5999 60.0163 68.5544 59.9269 68.4861C59.7928 68.3723 59.6141 68.2585 59.3906 68.1447C59.1672 68.0309 58.9214 67.9398 58.6756 67.8715C58.4298 67.8033 58.1841 67.7577 57.983 67.7577C57.6254 67.7577 57.3126 67.8033 57.0668 67.8943C56.8211 67.9854 56.6423 68.1219 56.5082 68.2812C56.3742 68.4406 56.3295 68.6226 56.3295 68.8502C56.3295 69.1006 56.3965 69.3282 56.5529 69.4875C56.7093 69.6469 56.9104 69.7834 57.1786 69.8745C57.4467 69.9655 57.7819 70.0565 58.1617 70.1476C58.6756 70.2386 59.1002 70.3524 59.48 70.489C59.8599 70.6256 60.1727 70.7849 60.4185 70.9897C60.6642 71.1946 60.8653 71.4449 60.9771 71.7408C61.1111 72.0367 61.1558 72.4009 61.1558 72.8561C61.1558 73.4023 60.9994 73.8803 60.7089 74.29C60.4185 74.6997 60.0163 74.9956 59.5247 75.2004C59.0331 75.4053 58.4969 75.5191 57.9383 75.5191" fill="#008D36"/>
<path d="M68.9985 72.014C68.9985 72.7196 68.8421 73.3341 68.5293 73.8576C68.2165 74.3811 67.8143 74.8135 67.3004 75.1094C66.7865 75.4053 66.2055 75.5646 65.5799 75.5646C64.9543 75.5646 64.3733 75.4053 63.8594 75.1094C63.3455 74.8135 62.9433 74.4039 62.6305 73.8576C62.3177 73.3341 62.1613 72.6968 62.1613 72.014C62.1613 71.3312 62.3177 70.6939 62.6305 70.1704C62.9433 69.6469 63.3455 69.2145 63.8594 68.9186C64.3733 68.6227 64.9543 68.4634 65.5799 68.4634C66.2055 68.4634 66.7865 68.6227 67.3004 68.9186C67.8143 69.2145 68.2165 69.6469 68.5293 70.1704C68.8421 70.6939 68.9985 71.3312 68.9985 72.014ZM67.5015 72.014C67.5015 71.5816 67.4121 71.1946 67.2334 70.876C67.0546 70.5573 66.8312 70.307 66.5407 70.1249C66.2502 69.9428 65.9374 69.8518 65.5799 69.8518C65.2224 69.8518 64.9096 69.9428 64.6191 70.1249C64.3286 70.307 64.1052 70.5573 63.9264 70.876C63.7477 71.1946 63.6807 71.5816 63.6807 72.014C63.6807 72.4465 63.77 72.8106 63.9264 73.1293C64.1052 73.4479 64.3286 73.6983 64.6191 73.8804C64.9096 74.0624 65.2224 74.1535 65.5799 74.1535C65.9374 74.1535 66.2502 74.0624 66.5407 73.8804C66.8312 73.6983 67.0546 73.4479 67.2334 73.1293C67.4121 72.8106 67.5015 72.4465 67.5015 72.014Z" fill="#008D36"/>
<path d="M73.311 68.4634C73.7803 68.4634 74.2048 68.5089 74.5623 68.6227C74.9198 68.7365 75.1879 68.8731 75.389 69.0552C75.5901 69.2372 75.6795 69.4648 75.6795 69.7152C75.6795 69.8973 75.6348 70.0338 75.5231 70.1932C75.4337 70.3525 75.2773 70.4208 75.0762 70.4208C74.9421 70.4208 74.8304 70.4208 74.741 70.3753C74.6517 70.3297 74.5846 70.2842 74.5176 70.2159C74.4506 70.1477 74.3612 70.1021 74.2718 70.0566C74.1824 70.0111 74.0707 69.9656 73.892 69.9428C73.7132 69.92 73.6015 69.8973 73.5121 69.8973C73.0876 69.8973 72.7301 69.9883 72.4173 70.1704C72.1268 70.3525 71.881 70.6029 71.7246 70.9215C71.5682 71.2402 71.4788 71.6043 71.4788 72.0368C71.4788 72.4692 71.5682 72.8106 71.7246 73.1293C71.881 73.4479 72.1044 73.6983 72.3949 73.8804C72.6854 74.0624 73.0205 74.1535 73.4004 74.1535C73.6015 74.1535 73.7802 74.1535 73.9367 74.108C74.0931 74.0852 74.2048 74.0397 74.3165 73.9942C74.4282 73.9259 74.54 73.8576 74.6293 73.7666C74.7187 73.6983 74.8528 73.6528 75.0539 73.6528C75.2773 73.6528 75.4337 73.721 75.5454 73.8576C75.6572 73.9942 75.7242 74.1762 75.7242 74.3811C75.7242 74.5859 75.6125 74.7908 75.3667 74.9729C75.1209 75.1549 74.8304 75.2915 74.4506 75.3825C74.0707 75.4964 73.6685 75.5419 73.2216 75.5419C72.5513 75.5419 71.9927 75.3826 71.5012 75.0867C71.0096 74.768 70.6297 74.3583 70.3839 73.8121C70.1158 73.2658 69.9818 72.6741 69.9818 72.014C69.9818 71.3084 70.1158 70.6939 70.4063 70.1704C70.6744 69.6469 71.0766 69.2145 71.5682 68.9186C72.0597 68.6227 72.6407 68.4634 73.2887 68.4634" fill="#008D36"/>
<path d="M77.4893 67.7579C77.1988 67.7579 76.9977 67.7123 76.886 67.6213C76.7743 67.5303 76.7073 67.3709 76.7073 67.1206V66.8702C76.7073 66.6198 76.7743 66.4605 76.9084 66.3695C77.0424 66.2784 77.2435 66.2329 77.5117 66.2329C77.8021 66.2329 78.0032 66.2784 78.1373 66.3695C78.249 66.4605 78.316 66.6198 78.316 66.8702V67.1206C78.316 67.3709 78.249 67.5303 78.1373 67.6213C78.0032 67.7123 77.8021 67.7579 77.5117 67.7579M78.2714 74.6543C78.2714 74.8819 78.2043 75.064 78.0479 75.2005C77.9139 75.3598 77.7128 75.4281 77.5117 75.4281C77.3106 75.4281 77.1095 75.3598 76.9754 75.2005C76.8413 75.0412 76.752 74.8591 76.752 74.6543V69.3738C76.752 69.1462 76.819 68.9642 76.9754 68.8276C77.1095 68.6683 77.2882 68.6 77.5117 68.6C77.7351 68.6 77.9139 68.6683 78.0479 68.8276C78.182 68.9869 78.2714 69.169 78.2714 69.3738V74.6543Z" fill="#008D36"/>
<path d="M85.3098 68.4632C85.5332 68.4632 85.712 68.5315 85.846 68.6908C85.9801 68.8274 86.0471 69.0322 86.0471 69.2598V74.6768C86.0471 74.9044 85.9801 75.0865 85.846 75.223C85.712 75.3824 85.5109 75.4506 85.3098 75.4506C85.1087 75.4506 84.9076 75.3824 84.7735 75.223C84.6395 75.0637 84.5501 74.8816 84.5501 74.6768V74.0395L84.8182 74.1533C84.8182 74.1533 84.7512 74.4037 84.6395 74.563C84.5277 74.7223 84.3713 74.8816 84.1702 75.0182C83.9691 75.1775 83.7457 75.2913 83.4552 75.4051C83.1647 75.5189 82.8966 75.5644 82.5615 75.5644C81.9805 75.5644 81.4666 75.4051 80.9974 75.1092C80.5281 74.8134 80.1483 74.3809 79.8802 73.8574C79.612 73.3339 79.478 72.7194 79.478 72.0138C79.478 71.3082 79.612 70.6937 79.8802 70.1702C80.1483 69.6467 80.5281 69.2143 80.975 68.9184C81.4443 68.6225 81.9358 68.4632 82.5168 68.4632C82.8743 68.4632 83.2094 68.5087 83.4999 68.6225C83.7904 68.7363 84.0585 68.8729 84.282 69.0322C84.5054 69.1915 84.6841 69.3736 84.7959 69.5557C84.9076 69.7378 84.9746 69.8743 84.9746 69.9881L84.5277 70.1475V69.2143C84.5277 68.9867 84.5948 68.8046 84.7512 68.668C84.8852 68.5087 85.064 68.4404 85.2874 68.4404M82.7626 74.1533C83.1201 74.1533 83.4552 74.0623 83.7233 73.8802C83.9915 73.6981 84.2149 73.4477 84.3713 73.1063C84.5277 72.7877 84.5948 72.4235 84.5948 72.0138C84.5948 71.6041 84.5054 71.24 84.3713 70.9213C84.2149 70.6027 83.9915 70.3523 83.7233 70.1475C83.4552 69.9654 83.1201 69.8743 82.7626 69.8743C82.405 69.8743 82.0922 69.9654 81.8018 70.1475C81.5336 70.3295 81.3102 70.5799 81.1538 70.9213C80.9974 71.24 80.9303 71.6041 80.9303 72.0138C80.9303 72.4235 80.9974 72.7649 81.1538 73.1063C81.3102 73.425 81.5336 73.6981 81.8018 73.8802C82.0699 74.0623 82.405 74.1533 82.7626 74.1533Z" fill="#008D36"/>
<path d="M89.3317 74.6541C89.3317 74.8817 89.2647 75.0638 89.1083 75.2004C88.9519 75.3597 88.7731 75.428 88.572 75.428C88.3709 75.428 88.1922 75.3597 88.0358 75.2004C87.9017 75.0411 87.8123 74.859 87.8123 74.6541V66.7563C87.8123 66.5287 87.8794 66.3466 88.0358 66.21C88.1922 66.0507 88.3709 65.9824 88.5944 65.9824C88.8178 65.9824 88.9966 66.0507 89.1306 66.21C89.2647 66.3694 89.3317 66.5514 89.3317 66.7563V74.6541Z" fill="#008D36"/>
<path d="M100.884 66.9156C101.107 67.0294 101.219 67.2115 101.263 67.4391C101.308 67.6894 101.241 67.8943 101.085 68.0991C100.973 68.2584 100.839 68.3267 100.66 68.3495C100.481 68.3495 100.325 68.3495 100.146 68.2357C99.9452 68.1446 99.7217 68.0764 99.5206 68.0081C99.2972 67.9626 99.0738 67.9398 98.828 67.9398C98.3811 67.9398 97.9789 68.0081 97.6214 68.1674C97.2639 68.304 96.9511 68.5088 96.7053 68.7819C96.4595 69.0551 96.2584 69.3737 96.1467 69.7379C96.0126 70.102 95.9456 70.5117 95.9456 70.9442C95.9456 71.4677 96.0126 71.9229 96.169 72.3098C96.3031 72.6967 96.5265 73.0154 96.7723 73.2657C97.0405 73.5161 97.3309 73.6982 97.6884 73.8347C98.0459 73.9485 98.4258 74.0168 98.828 74.0168C99.0514 74.0168 99.2749 74.0168 99.4983 73.9486C99.7217 73.903 99.9452 73.8347 100.146 73.7209C100.325 73.6299 100.504 73.6071 100.66 73.6299C100.839 73.6527 100.973 73.7437 101.085 73.903C101.241 74.1079 101.308 74.3355 101.263 74.5631C101.219 74.7907 101.085 74.95 100.884 75.0638C100.66 75.1776 100.437 75.2687 100.213 75.3369C99.9899 75.4052 99.7441 75.4735 99.5206 75.4963C99.2749 75.5418 99.0514 75.5418 98.8056 75.5418C98.2023 75.5418 97.6214 75.4507 97.0851 75.2459C96.5489 75.0411 96.0573 74.7679 95.6328 74.381C95.2082 73.9941 94.8731 73.5161 94.6273 72.9471C94.3815 72.3781 94.2698 71.6953 94.2698 70.9442C94.2698 70.2841 94.3815 69.6924 94.6049 69.1233C94.8284 68.5771 95.1412 68.0764 95.5434 67.6894C95.9456 67.2797 96.4372 66.9611 96.9734 66.7335C97.532 66.5059 98.1353 66.3921 98.7833 66.3921C99.1631 66.3921 99.5206 66.4376 99.8558 66.5287C100.213 66.6197 100.526 66.7335 100.839 66.8928" fill="#008D36"/>
<path d="M108.995 72.014C108.995 72.7196 108.838 73.3341 108.525 73.8576C108.212 74.3811 107.81 74.8135 107.296 75.1094C106.782 75.4053 106.202 75.5646 105.576 75.5646C104.95 75.5646 104.369 75.4053 103.855 75.1094C103.341 74.8135 102.939 74.4039 102.626 73.8576C102.314 73.3341 102.157 72.6968 102.157 72.014C102.157 71.3312 102.314 70.6939 102.626 70.1704C102.939 69.6469 103.341 69.2145 103.855 68.9186C104.369 68.6227 104.95 68.4634 105.576 68.4634C106.202 68.4634 106.782 68.6227 107.296 68.9186C107.81 69.2145 108.212 69.6469 108.525 70.1704C108.838 70.6939 108.995 71.3312 108.995 72.014ZM107.475 72.014C107.475 71.5816 107.386 71.1946 107.207 70.876C107.028 70.5573 106.805 70.307 106.514 70.1249C106.224 69.9428 105.911 69.8518 105.554 69.8518C105.196 69.8518 104.883 69.9428 104.593 70.1249C104.302 70.307 104.079 70.5573 103.9 70.876C103.721 71.1946 103.654 71.5816 103.654 72.014C103.654 72.4465 103.744 72.8106 103.9 73.1293C104.079 73.4479 104.302 73.6983 104.593 73.8804C104.883 74.0624 105.196 74.1535 105.554 74.1535C105.911 74.1535 106.224 74.0624 106.514 73.8804C106.805 73.6983 107.028 73.4479 107.207 73.1293C107.386 72.8106 107.475 72.4465 107.475 72.014Z" fill="#008D36"/>
<path d="M113.821 68.4634C114.491 68.4634 114.983 68.6227 115.296 68.9641C115.608 69.3055 115.832 69.7152 115.921 70.2387L115.698 70.1249L115.787 69.92C115.877 69.7152 116.033 69.5104 116.256 69.2828C116.457 69.0552 116.726 68.8731 117.016 68.7137C117.307 68.5544 117.642 68.4861 118.022 68.4861C118.625 68.4861 119.094 68.6227 119.407 68.8731C119.72 69.1462 119.943 69.4876 120.055 69.92C120.167 70.3525 120.234 70.8532 120.234 71.3767V74.6542C120.234 74.8818 120.167 75.0639 120.01 75.2005C119.876 75.3598 119.697 75.4281 119.474 75.4281C119.25 75.4281 119.072 75.3598 118.938 75.2005C118.804 75.0411 118.714 74.8591 118.714 74.6542V71.3767C118.714 71.1036 118.692 70.8532 118.602 70.6256C118.535 70.398 118.424 70.2159 118.245 70.0794C118.066 69.9428 117.82 69.8745 117.485 69.8745C117.15 69.8745 116.904 69.9428 116.681 70.0794C116.457 70.2159 116.279 70.398 116.167 70.6256C116.055 70.8532 115.988 71.1036 115.988 71.3767V74.6542C115.988 74.8818 115.921 75.0639 115.765 75.2005C115.631 75.3598 115.452 75.4281 115.229 75.4281C115.005 75.4281 114.826 75.3598 114.692 75.2005C114.558 75.0411 114.469 74.8591 114.469 74.6542V71.3767C114.469 71.1036 114.446 70.8532 114.379 70.6256C114.312 70.398 114.201 70.2159 114.022 70.0794C113.843 69.9428 113.597 69.8745 113.262 69.8745C112.927 69.8745 112.681 69.9428 112.436 70.0794C112.212 70.2159 112.033 70.398 111.922 70.6256C111.81 70.8532 111.743 71.1036 111.743 71.3767V74.6542C111.743 74.8818 111.676 75.0639 111.542 75.2005C111.408 75.3598 111.229 75.4281 111.005 75.4281C110.782 75.4281 110.603 75.3598 110.469 75.2005C110.335 75.0411 110.246 74.8591 110.246 74.6542V69.3738C110.246 69.1462 110.313 68.9641 110.469 68.8275C110.603 68.6682 110.782 68.5999 111.005 68.5999C111.229 68.5999 111.408 68.6682 111.542 68.8275C111.676 68.9641 111.743 69.169 111.743 69.3738V69.92L111.564 69.8745C111.631 69.738 111.743 69.5786 111.877 69.3966C112.011 69.2372 112.167 69.0779 112.368 68.9414C112.57 68.8048 112.771 68.6682 113.016 68.5999C113.24 68.5089 113.508 68.4634 113.776 68.4634" fill="#008D36"/>
<path d="M125.35 68.4634C125.931 68.4634 126.468 68.6227 126.914 68.9186C127.384 69.2145 127.741 69.6469 128.032 70.1704C128.3 70.6939 128.434 71.3084 128.434 72.014C128.434 72.7196 128.3 73.3341 128.032 73.8576C127.764 74.3811 127.384 74.8135 126.937 75.1094C126.49 75.4053 125.976 75.5646 125.395 75.5646C125.06 75.5646 124.747 75.5191 124.457 75.4053C124.166 75.2915 123.898 75.1549 123.675 74.9956C123.451 74.8363 123.272 74.6542 123.161 74.4721C123.049 74.2901 122.982 74.1535 122.982 74.0397L123.362 73.8804V77.2489C123.362 77.4765 123.295 77.6586 123.138 77.7952C123.004 77.9545 122.825 78.0228 122.602 78.0228C122.379 78.0228 122.2 77.9545 122.066 77.7952C121.932 77.6586 121.865 77.4538 121.865 77.2261V69.3966C121.865 69.169 121.932 68.9869 122.066 68.8503C122.2 68.691 122.401 68.6227 122.602 68.6227C122.803 68.6227 123.004 68.691 123.138 68.8503C123.272 69.0096 123.362 69.1917 123.362 69.3966V70.0339L123.138 69.92C123.138 69.92 123.205 69.6697 123.317 69.5104C123.429 69.351 123.585 69.1917 123.786 69.0324C123.987 68.8731 124.211 68.7365 124.479 68.6455C124.747 68.5544 125.015 68.4861 125.306 68.4861M125.172 69.8745C124.792 69.8745 124.479 69.9656 124.211 70.1477C123.943 70.3297 123.719 70.5801 123.563 70.8987C123.406 71.2174 123.339 71.5816 123.339 71.9912C123.339 72.4009 123.429 72.7651 123.563 73.0837C123.719 73.4024 123.943 73.6755 124.211 73.8576C124.479 74.0397 124.814 74.1307 125.172 74.1307C125.529 74.1307 125.864 74.0397 126.132 73.8576C126.401 73.6755 126.624 73.4024 126.78 73.0837C126.937 72.7651 127.004 72.4009 127.004 71.9912C127.004 71.5816 126.937 71.2174 126.78 70.8987C126.624 70.5801 126.423 70.3297 126.132 70.1477C125.864 69.9656 125.551 69.8745 125.172 69.8745Z" fill="#008D36"/>
<path d="M131.406 74.6541C131.406 74.8817 131.339 75.0638 131.182 75.2004C131.026 75.3597 130.847 75.428 130.646 75.428C130.445 75.428 130.266 75.3597 130.11 75.2004C129.976 75.0411 129.886 74.859 129.886 74.6541V66.7563C129.886 66.5287 129.953 66.3466 130.11 66.21C130.266 66.0507 130.445 65.9824 130.668 65.9824C130.892 65.9824 131.07 66.0507 131.205 66.21C131.339 66.3694 131.406 66.5514 131.406 66.7563V74.6541Z" fill="#008D36"/>
<path d="M133.796 67.7579C133.506 67.7579 133.305 67.7123 133.193 67.6213C133.081 67.5303 133.014 67.3709 133.014 67.1206V66.8702C133.014 66.6198 133.081 66.4605 133.216 66.3695C133.35 66.2784 133.551 66.2329 133.819 66.2329C134.109 66.2329 134.31 66.2784 134.444 66.3695C134.556 66.4605 134.623 66.6198 134.623 66.8702V67.1206C134.623 67.3709 134.556 67.5303 134.444 67.6213C134.31 67.7123 134.109 67.7579 133.819 67.7579M134.578 74.6543C134.578 74.8819 134.511 75.064 134.355 75.2005C134.221 75.3598 134.02 75.4281 133.819 75.4281C133.618 75.4281 133.417 75.3598 133.283 75.2005C133.148 75.0412 133.059 74.8591 133.059 74.6543V69.3738C133.059 69.1462 133.126 68.9642 133.283 68.8276C133.417 68.6683 133.595 68.6 133.819 68.6C134.042 68.6 134.221 68.6683 134.355 68.8276C134.489 68.9869 134.578 69.169 134.578 69.3738V74.6543Z" fill="#008D36"/>
<path d="M141.617 68.4632C141.84 68.4632 142.019 68.5315 142.153 68.6908C142.287 68.8274 142.354 69.0322 142.354 69.2598V74.6768C142.354 74.9044 142.287 75.0865 142.153 75.223C142.019 75.3824 141.818 75.4506 141.617 75.4506C141.416 75.4506 141.215 75.3824 141.081 75.223C140.947 75.0637 140.857 74.8816 140.857 74.6768V74.0395L141.125 74.1533C141.125 74.1533 141.058 74.4037 140.947 74.563C140.835 74.7223 140.678 74.8816 140.477 75.0182C140.276 75.1775 140.053 75.2913 139.762 75.4051C139.472 75.5189 139.204 75.5644 138.869 75.5644C138.288 75.5644 137.774 75.4051 137.304 75.1092C136.835 74.8134 136.455 74.3809 136.187 73.8574C135.919 73.3339 135.785 72.7194 135.785 72.0138C135.785 71.3082 135.919 70.6937 136.187 70.1702C136.455 69.6467 136.835 69.2143 137.282 68.9184C137.751 68.6225 138.243 68.4632 138.824 68.4632C139.181 68.4632 139.517 68.5087 139.807 68.6225C140.098 68.7363 140.366 68.8729 140.589 69.0322C140.813 69.1915 140.991 69.3736 141.103 69.5557C141.215 69.7378 141.282 69.8743 141.282 69.9881L140.835 70.1475V69.2143C140.835 68.9867 140.902 68.8046 141.058 68.668C141.192 68.5087 141.371 68.4404 141.595 68.4404M139.07 74.1533C139.427 74.1533 139.762 74.0623 140.03 73.8802C140.299 73.6981 140.522 73.4477 140.678 73.1063C140.835 72.7877 140.902 72.4235 140.902 72.0138C140.902 71.6041 140.813 71.24 140.678 70.9213C140.522 70.6027 140.299 70.3523 140.03 70.1475C139.762 69.9654 139.427 69.8743 139.07 69.8743C138.712 69.8743 138.399 69.9654 138.109 70.1475C137.841 70.3295 137.617 70.5799 137.461 70.9213C137.304 71.24 137.237 71.6041 137.237 72.0138C137.237 72.4235 137.304 72.7649 137.461 73.1063C137.617 73.425 137.841 73.6981 138.109 73.8802C138.377 74.0623 138.712 74.1533 139.07 74.1533Z" fill="#008D36"/>
<path d="M147.583 68.4632C148.208 68.4632 148.678 68.5998 148.99 68.8501C149.303 69.1005 149.527 69.4646 149.661 69.8971C149.772 70.3295 149.84 70.8303 149.84 71.3538V74.6313C149.84 74.8589 149.772 75.041 149.616 75.1775C149.482 75.3368 149.303 75.4051 149.08 75.4051C148.856 75.4051 148.678 75.3368 148.544 75.1775C148.409 75.0182 148.32 74.8361 148.32 74.6313V71.3538C148.32 71.0806 148.275 70.8303 148.208 70.6027C148.141 70.3751 148.007 70.193 147.829 70.0564C147.65 69.9199 147.382 69.8516 147.046 69.8516C146.711 69.8516 146.421 69.9199 146.197 70.0564C145.974 70.193 145.795 70.3751 145.661 70.6027C145.527 70.8303 145.482 71.0806 145.482 71.3538V74.6313C145.482 74.8589 145.415 75.041 145.259 75.1775C145.125 75.3368 144.946 75.4051 144.723 75.4051C144.499 75.4051 144.321 75.3368 144.186 75.1775C144.052 75.0182 143.963 74.8361 143.963 74.6313V69.3508C143.963 69.1232 144.03 68.9412 144.186 68.8046C144.321 68.6453 144.499 68.577 144.723 68.577C144.946 68.577 145.125 68.6453 145.259 68.8046C145.393 68.9412 145.482 69.146 145.482 69.3508V69.8971L145.304 69.8516C145.371 69.715 145.482 69.5557 145.639 69.3736C145.773 69.2143 145.952 69.055 146.13 68.9184C146.331 68.7818 146.533 68.6453 146.778 68.577C147.024 68.5087 147.292 68.4404 147.56 68.4404" fill="#008D36"/>
<path d="M154.465 68.4634C154.934 68.4634 155.359 68.5089 155.716 68.6227C156.074 68.7365 156.342 68.8731 156.543 69.0552C156.744 69.2372 156.833 69.4648 156.833 69.7152C156.833 69.8973 156.789 70.0338 156.677 70.1932C156.587 70.3525 156.431 70.4208 156.23 70.4208C156.096 70.4208 155.984 70.4208 155.895 70.3753C155.805 70.3297 155.738 70.2842 155.671 70.2159C155.604 70.1477 155.515 70.1021 155.426 70.0566C155.336 70.0111 155.224 69.9656 155.046 69.9428C154.867 69.92 154.755 69.8973 154.666 69.8973C154.241 69.8973 153.884 69.9883 153.571 70.1704C153.281 70.3525 153.035 70.6029 152.878 70.9215C152.722 71.2402 152.633 71.6043 152.633 72.0368C152.633 72.4692 152.722 72.8106 152.878 73.1293C153.035 73.4479 153.258 73.6983 153.549 73.8804C153.839 74.0624 154.174 74.1535 154.554 74.1535C154.755 74.1535 154.934 74.1535 155.09 74.108C155.247 74.0852 155.359 74.0397 155.47 73.9942C155.582 73.9259 155.694 73.8576 155.783 73.7666C155.872 73.6983 156.007 73.6528 156.208 73.6528C156.431 73.6528 156.587 73.721 156.699 73.8576C156.811 73.9942 156.878 74.1762 156.878 74.3811C156.878 74.5859 156.766 74.7908 156.52 74.9729C156.275 75.1549 155.984 75.2915 155.604 75.3825C155.224 75.4964 154.822 75.5419 154.375 75.5419C153.705 75.5419 153.146 75.3826 152.655 75.0867C152.163 74.768 151.783 74.3583 151.538 73.8121C151.27 73.2658 151.135 72.6741 151.135 72.014C151.135 71.3084 151.27 70.6939 151.56 70.1704C151.828 69.6469 152.23 69.2145 152.722 68.9186C153.213 68.6227 153.794 68.4634 154.442 68.4634" fill="#008D36"/>
<path d="M161.168 75.5646C160.453 75.5646 159.827 75.4053 159.313 75.1094C158.8 74.8135 158.397 74.4039 158.107 73.8804C157.816 73.3569 157.682 72.7651 157.682 72.105C157.682 71.3312 157.839 70.6939 158.152 70.1477C158.464 69.6014 158.867 69.1917 159.358 68.8958C159.85 68.5999 160.386 68.4634 160.922 68.4634C161.347 68.4634 161.749 68.5544 162.129 68.7365C162.509 68.9186 162.844 69.169 163.134 69.4648C163.425 69.7835 163.671 70.1249 163.827 70.5346C164.006 70.9443 164.095 71.3767 164.095 71.8319C164.095 72.0368 164.006 72.1961 163.849 72.3327C163.693 72.4692 163.514 72.5147 163.313 72.5147H158.509L158.129 71.2402H162.732L162.464 71.4905V71.1491C162.464 70.8987 162.352 70.6711 162.218 70.4891C162.062 70.2842 161.861 70.1477 161.637 70.0111C161.414 69.8973 161.168 69.829 160.9 69.829C160.632 69.829 160.408 69.8745 160.207 69.9428C160.006 70.0111 159.805 70.1249 159.649 70.2842C159.492 70.4435 159.358 70.6711 159.269 70.9443C159.179 71.2174 159.135 71.5588 159.135 71.9912C159.135 72.4465 159.224 72.8334 159.425 73.152C159.604 73.4707 159.85 73.721 160.163 73.8804C160.453 74.0397 160.766 74.1307 161.101 74.1307C161.414 74.1307 161.66 74.108 161.838 74.0624C162.017 74.0169 162.173 73.9486 162.285 73.8804C162.397 73.8121 162.509 73.7438 162.598 73.6983C162.754 73.63 162.888 73.5845 163.023 73.5845C163.201 73.5845 163.358 73.6528 163.492 73.7666C163.626 73.8804 163.671 74.0397 163.671 74.2218C163.671 74.4494 163.559 74.6542 163.313 74.8363C163.09 75.0184 162.799 75.1777 162.397 75.337C161.995 75.4736 161.593 75.5419 161.19 75.5419" fill="#008D36"/>
<path d="M170.62 74.6544C170.62 74.882 170.53 75.0641 170.374 75.2006C170.217 75.36 170.039 75.4282 169.815 75.4282C169.569 75.4282 169.391 75.36 169.257 75.2006C169.122 75.0413 169.033 74.8592 169.033 74.6544V67.2573C169.033 67.0296 169.1 66.8476 169.257 66.711C169.413 66.5517 169.592 66.4834 169.837 66.4834C170.039 66.4834 170.217 66.5517 170.374 66.711C170.53 66.8703 170.597 67.0524 170.597 67.2573V74.6544H170.62Z" fill="#008D36"/>
<path d="M175.982 68.4632C176.608 68.4632 177.077 68.5998 177.39 68.8501C177.703 69.1005 177.926 69.4646 178.06 69.8971C178.172 70.3295 178.239 70.8303 178.239 71.3538V74.6313C178.239 74.8589 178.172 75.041 178.015 75.1775C177.881 75.3368 177.703 75.4051 177.479 75.4051C177.256 75.4051 177.077 75.3368 176.943 75.1775C176.809 75.0182 176.719 74.8361 176.719 74.6313V71.3538C176.719 71.0806 176.675 70.8303 176.608 70.6027C176.541 70.3751 176.407 70.193 176.228 70.0564C176.049 69.9199 175.781 69.8516 175.446 69.8516C175.111 69.8516 174.82 69.9199 174.597 70.0564C174.373 70.193 174.195 70.3751 174.061 70.6027C173.926 70.8303 173.882 71.0806 173.882 71.3538V74.6313C173.882 74.8589 173.815 75.041 173.658 75.1775C173.524 75.3368 173.346 75.4051 173.122 75.4051C172.899 75.4051 172.72 75.3368 172.586 75.1775C172.452 75.0182 172.362 74.8361 172.362 74.6313V69.3508C172.362 69.1232 172.429 68.9412 172.586 68.8046C172.72 68.6453 172.899 68.577 173.122 68.577C173.346 68.577 173.524 68.6453 173.658 68.8046C173.792 68.9412 173.882 69.146 173.882 69.3508V69.8971L173.703 69.8516C173.77 69.715 173.882 69.5557 174.038 69.3736C174.172 69.2143 174.351 69.055 174.53 68.9184C174.731 68.7818 174.932 68.6453 175.178 68.577C175.424 68.5087 175.692 68.4404 175.96 68.4404" fill="#008D36"/>
<path d="M180.518 67.7579C180.228 67.7579 180.026 67.7123 179.915 67.6213C179.803 67.5303 179.736 67.3709 179.736 67.1206V66.8702C179.736 66.6198 179.803 66.4605 179.937 66.3695C180.071 66.2784 180.272 66.2329 180.54 66.2329C180.831 66.2329 181.032 66.2784 181.166 66.3695C181.278 66.4605 181.345 66.6198 181.345 66.8702V67.1206C181.345 67.3709 181.278 67.5303 181.166 67.6213C181.032 67.7123 180.831 67.7579 180.54 67.7579M181.278 74.6543C181.278 74.8819 181.211 75.064 181.054 75.2005C180.92 75.3598 180.719 75.4281 180.518 75.4281C180.317 75.4281 180.116 75.3598 179.982 75.2005C179.848 75.0412 179.758 74.8591 179.758 74.6543V69.3738C179.758 69.1462 179.825 68.9642 179.982 68.8276C180.116 68.6683 180.295 68.6 180.518 68.6C180.741 68.6 180.92 68.6683 181.054 68.8276C181.188 68.9869 181.278 69.169 181.278 69.3738V74.6543Z" fill="#008D36"/>
<path d="M182.909 68.7136H185.881C186.082 68.7136 186.26 68.7819 186.372 68.9185C186.506 69.0551 186.573 69.2144 186.573 69.442C186.573 69.6696 186.506 69.8061 186.372 69.9427C186.238 70.0793 186.082 70.1476 185.881 70.1476H182.909C182.708 70.1476 182.529 70.0793 182.417 69.9427C182.283 69.8061 182.216 69.6468 182.216 69.442C182.216 69.2371 182.283 69.0778 182.417 68.9413C182.551 68.8047 182.73 68.7364 182.909 68.7364M184.249 67.1204C184.473 67.1204 184.652 67.1887 184.786 67.348C184.92 67.5073 184.987 67.6894 184.987 67.8943V73.5844C184.987 73.6982 185.009 73.812 185.054 73.8803C185.099 73.9485 185.166 74.0168 185.233 74.0396C185.3 74.0851 185.389 74.0851 185.478 74.0851C185.568 74.0851 185.679 74.0851 185.746 74.0396C185.836 73.9941 185.925 73.9713 186.037 73.9713C186.149 73.9713 186.26 74.0168 186.35 74.1306C186.439 74.2444 186.506 74.4038 186.506 74.5858C186.506 74.8134 186.372 75.0183 186.126 75.1776C185.881 75.3369 185.59 75.4052 185.3 75.4052C185.121 75.4052 184.92 75.4052 184.719 75.3597C184.495 75.3369 184.316 75.2459 184.115 75.1321C183.937 75.0183 183.78 74.8362 183.646 74.6086C183.512 74.3582 183.467 74.0396 183.467 73.6299V67.8715C183.467 67.6439 183.534 67.4618 183.691 67.3253C183.847 67.1659 184.026 67.0977 184.227 67.0977" fill="#008D36"/>
<path d="M188.629 67.7579C188.338 67.7579 188.137 67.7123 188.026 67.6213C187.914 67.5303 187.847 67.3709 187.847 67.1206V66.8702C187.847 66.6198 187.914 66.4605 188.048 66.3695C188.182 66.2784 188.383 66.2329 188.651 66.2329C188.942 66.2329 189.143 66.2784 189.277 66.3695C189.389 66.4605 189.456 66.6198 189.456 66.8702V67.1206C189.456 67.3709 189.389 67.5303 189.277 67.6213C189.143 67.7123 188.942 67.7579 188.651 67.7579M189.389 74.6543C189.389 74.8819 189.322 75.064 189.165 75.2005C189.031 75.3598 188.83 75.4281 188.629 75.4281C188.428 75.4281 188.227 75.3598 188.093 75.2005C187.959 75.0412 187.869 74.8591 187.869 74.6543V69.3738C187.869 69.1462 187.936 68.9642 188.093 68.8276C188.227 68.6683 188.405 68.6 188.629 68.6C188.852 68.6 189.031 68.6683 189.165 68.8276C189.299 68.9869 189.389 69.169 189.389 69.3738V74.6543Z" fill="#008D36"/>
<path d="M196.427 68.4632C196.65 68.4632 196.829 68.5315 196.963 68.6908C197.097 68.8274 197.164 69.0322 197.164 69.2598V74.6768C197.164 74.9044 197.097 75.0865 196.963 75.223C196.829 75.3824 196.628 75.4506 196.427 75.4506C196.226 75.4506 196.025 75.3824 195.891 75.223C195.757 75.0637 195.667 74.8816 195.667 74.6768V74.0395L195.935 74.1533C195.935 74.1533 195.868 74.4037 195.757 74.563C195.645 74.7223 195.489 74.8816 195.287 75.0182C195.086 75.1775 194.863 75.2913 194.572 75.4051C194.282 75.5189 194.014 75.5644 193.679 75.5644C193.098 75.5644 192.584 75.4051 192.115 75.1092C191.645 74.8134 191.266 74.3809 190.997 73.8574C190.729 73.3339 190.595 72.7194 190.595 72.0138C190.595 71.3082 190.729 70.6937 190.997 70.1702C191.266 69.6467 191.645 69.2143 192.092 68.9184C192.561 68.6225 193.053 68.4632 193.634 68.4632C193.992 68.4632 194.327 68.5087 194.617 68.6225C194.908 68.7363 195.176 68.8729 195.399 69.0322C195.623 69.1915 195.801 69.3736 195.913 69.5557C196.025 69.7378 196.092 69.8743 196.092 69.9881L195.645 70.1475V69.2143C195.645 68.9867 195.712 68.8046 195.868 68.668C196.002 68.5087 196.181 68.4404 196.405 68.4404M193.902 74.1533C194.26 74.1533 194.595 74.0623 194.863 73.8802C195.131 73.6981 195.355 73.4477 195.511 73.1063C195.667 72.7877 195.734 72.4235 195.734 72.0138C195.734 71.6041 195.645 71.24 195.511 70.9213C195.355 70.6027 195.131 70.3523 194.863 70.1475C194.595 69.9654 194.26 69.8743 193.902 69.8743C193.545 69.8743 193.232 69.9654 192.941 70.1475C192.673 70.3295 192.45 70.5799 192.293 70.9213C192.137 71.24 192.07 71.6041 192.07 72.0138C192.07 72.4235 192.137 72.7649 192.293 73.1063C192.45 73.425 192.673 73.6981 192.941 73.8802C193.209 74.0623 193.545 74.1533 193.902 74.1533Z" fill="#008D36"/>
<path d="M198.885 68.7136H201.857C202.058 68.7136 202.236 68.7819 202.348 68.9185C202.482 69.0551 202.549 69.2144 202.549 69.442C202.549 69.6696 202.482 69.8061 202.348 69.9427C202.214 70.0793 202.058 70.1476 201.857 70.1476H198.885C198.684 70.1476 198.505 70.0793 198.393 69.9427C198.259 69.8061 198.192 69.6468 198.192 69.442C198.192 69.2371 198.259 69.0778 198.393 68.9413C198.527 68.8047 198.706 68.7364 198.885 68.7364M200.225 67.1204C200.449 67.1204 200.628 67.1887 200.762 67.348C200.896 67.5073 200.963 67.6894 200.963 67.8943V73.5844C200.963 73.6982 200.985 73.812 201.03 73.8803C201.075 73.9485 201.142 74.0168 201.209 74.0396C201.276 74.0851 201.365 74.0851 201.454 74.0851C201.544 74.0851 201.655 74.0851 201.723 74.0396C201.812 73.9941 201.901 73.9713 202.013 73.9713C202.125 73.9713 202.236 74.0168 202.326 74.1306C202.415 74.2444 202.482 74.4038 202.482 74.5858C202.482 74.8134 202.348 75.0183 202.102 75.1776C201.857 75.3369 201.566 75.4052 201.276 75.4052C201.097 75.4052 200.896 75.4052 200.695 75.3597C200.471 75.3369 200.292 75.2459 200.091 75.1321C199.913 75.0183 199.756 74.8362 199.622 74.6086C199.488 74.3582 199.443 74.0396 199.443 73.6299V67.8715C199.443 67.6439 199.51 67.4618 199.667 67.3253C199.823 67.1659 200.002 67.0977 200.203 67.0977" fill="#008D36"/>
<path d="M204.605 67.7579C204.314 67.7579 204.113 67.7123 204.002 67.6213C203.89 67.5303 203.823 67.3709 203.823 67.1206V66.8702C203.823 66.6198 203.89 66.4605 204.024 66.3695C204.158 66.2784 204.359 66.2329 204.627 66.2329C204.918 66.2329 205.119 66.2784 205.231 66.3695C205.342 66.4605 205.409 66.6198 205.409 66.8702V67.1206C205.409 67.3709 205.342 67.5303 205.231 67.6213C205.096 67.7123 204.895 67.7579 204.605 67.7579ZM205.365 74.6543C205.365 74.8819 205.298 75.064 205.141 75.2005C205.007 75.3598 204.806 75.4281 204.605 75.4281C204.404 75.4281 204.203 75.3598 204.069 75.2005C203.935 75.0412 203.868 74.8591 203.868 74.6543V69.3738C203.868 69.1462 203.935 68.9642 204.069 68.8276C204.203 68.6683 204.381 68.6 204.605 68.6C204.828 68.6 205.007 68.6683 205.141 68.8276C205.275 68.9869 205.365 69.169 205.365 69.3738V74.6543Z" fill="#008D36"/>
<path d="M207.219 68.6001C207.376 68.6001 207.532 68.6456 207.666 68.7139C207.8 68.8049 207.889 68.9187 207.957 69.0781L209.811 73.3798L209.543 73.5164L211.42 69.1008C211.554 68.7594 211.777 68.6001 212.09 68.6229C212.291 68.6229 212.47 68.6911 212.604 68.8277C212.738 68.9643 212.805 69.1236 212.805 69.3284C212.805 69.3967 212.805 69.4422 212.783 69.5105C212.76 69.5788 212.738 69.6471 212.716 69.7154L210.37 74.973C210.236 75.2689 210.035 75.451 209.722 75.451C209.565 75.4738 209.409 75.451 209.252 75.3599C209.096 75.2689 208.984 75.1323 208.917 74.973L206.594 69.7154C206.594 69.7154 206.549 69.6243 206.549 69.556C206.526 69.4878 206.526 69.3967 206.526 69.3057C206.526 69.1464 206.594 69.0098 206.728 68.8505C206.862 68.6911 207.04 68.6229 207.264 68.6229" fill="#008D36"/>
<path d="M217.073 75.5646C216.358 75.5646 215.732 75.4053 215.218 75.1094C214.704 74.8135 214.302 74.4039 214.012 73.8804C213.721 73.3569 213.587 72.7651 213.587 72.105C213.587 71.3312 213.744 70.6939 214.056 70.1477C214.369 69.6014 214.771 69.1917 215.263 68.8958C215.755 68.5999 216.291 68.4634 216.827 68.4634C217.252 68.4634 217.654 68.5544 218.034 68.7365C218.414 68.9186 218.749 69.169 219.039 69.4648C219.33 69.7835 219.575 70.1249 219.732 70.5346C219.911 70.9443 220 71.3767 220 71.8319C220 72.0368 219.911 72.1961 219.754 72.3327C219.598 72.4692 219.419 72.5147 219.218 72.5147H214.414L214.034 71.2402H218.637L218.369 71.4905V71.1491C218.369 70.8987 218.257 70.6711 218.101 70.4891C217.944 70.2842 217.743 70.1477 217.52 70.0111C217.296 69.8973 217.051 69.829 216.782 69.829C216.514 69.829 216.291 69.8745 216.09 69.9428C215.889 70.0111 215.688 70.1249 215.531 70.2842C215.375 70.4435 215.241 70.6711 215.151 70.9443C215.062 71.2174 215.017 71.5588 215.017 71.9912C215.017 72.4465 215.107 72.8334 215.308 73.152C215.486 73.4707 215.732 73.721 216.045 73.8804C216.358 74.0397 216.648 74.1307 216.984 74.1307C217.296 74.1307 217.542 74.108 217.721 74.0624C217.9 74.0169 218.056 73.9486 218.168 73.8804C218.279 73.8121 218.391 73.7438 218.481 73.6983C218.637 73.63 218.771 73.5845 218.905 73.5845C219.084 73.5845 219.24 73.6528 219.374 73.7666C219.508 73.8804 219.553 74.0397 219.553 74.2218C219.553 74.4494 219.441 74.6542 219.196 74.8363C218.972 75.0184 218.682 75.1777 218.279 75.337C217.877 75.4736 217.475 75.5419 217.073 75.5419" fill="#008D36"/>
<path fill-rule="evenodd" clip-rule="evenodd" d="M24.0199 13.4287H49.2017V10.8112H33.9407C28.5558 10.8112 24.154 6.3274 24.154 0.864896V0H62.6975L84.4607 13.4287V53.9195C84.4607 56.6962 82.2263 58.9723 79.5226 58.9723H19.7298C17.0485 58.9723 14.8588 56.7417 14.8588 54.0105C14.8588 51.2792 17.0485 49.0487 19.7298 49.0487H35.0132V47.2734H9.76437C7.08308 47.2734 4.89336 45.0429 4.89336 42.3116C4.89336 39.5804 7.08308 37.3499 9.76437 37.3499H32.1308V35.3014H4.87101C2.18972 35.3014 0 33.0709 0 30.3397C0 27.6084 2.18972 25.3779 4.87101 25.3779H35.6165L38.767 23.3294H9.76437C7.08308 23.3294 4.89336 21.0989 4.89336 18.3677C4.89336 15.6364 7.08308 13.4059 9.76437 13.4059H23.9976L24.0199 13.4287Z" fill="#008D36"/>
<path d="M49.7379 18.0718C39.1468 18.0718 30.5667 26.8118 30.5667 37.5775C30.5667 48.3432 39.1468 57.1059 49.7379 57.1059C60.3291 57.1059 68.8868 48.3659 68.8868 37.5775C68.8868 26.789 60.3067 18.0718 49.7379 18.0718ZM63.3455 28.5871C64.8649 30.9769 65.8034 33.7765 65.9374 36.8036H60.3291C60.195 34.3455 59.5917 31.4549 58.2064 28.5871H63.3455ZM50.4753 21.5541C52.7097 23.2156 54.4079 25.1275 55.6591 27.0849H50.4753V21.5541ZM48.9783 27.0849H43.7944C45.0457 25.1275 46.7438 23.2156 48.9783 21.5541V27.0849ZM48.9783 28.5871V36.8036H40.5992C40.7333 34.3682 41.4036 31.4549 42.9007 28.5871H48.9783ZM48.9783 38.3286V46.5451H42.9007C41.493 43.7911 40.7109 40.7867 40.5992 38.3286H48.9783ZM48.9783 48.07V53.3504C46.8556 52.1669 45.0904 50.255 43.7497 48.07H48.9783ZM50.4753 48.07H55.7038C54.3632 50.255 52.598 52.1669 50.4753 53.3504V48.07ZM50.4753 46.5678V38.3513H58.8543C58.7426 40.8094 57.9606 43.8138 56.5529 46.5678H50.4753ZM50.4753 36.8264V28.6099H56.5529C58.05 31.4777 58.7203 34.391 58.8543 36.8264H50.4753ZM62.2506 27.0849H57.402C56.2401 25.0592 54.6537 23.1018 52.5757 21.3265C56.4412 22.0321 59.8375 24.1261 62.2506 27.0849ZM46.8779 21.3038C44.7999 23.0791 43.2358 25.0592 42.0516 27.0621H37.2029C39.5937 24.1033 43.0124 21.9866 46.8779 21.3038ZM36.108 28.5871H41.2472C39.8619 31.4777 39.2586 34.3682 39.1245 36.8036H33.5161C33.6502 33.7765 34.5886 30.9542 36.108 28.5871ZM36.108 46.5678C34.5886 44.178 33.6502 41.3557 33.5161 38.3513H39.1022C39.2139 40.8322 39.9289 43.7911 41.2248 46.5678H36.0857H36.108ZM37.2029 48.07H42.0292C42.0292 48.07 42.141 48.2521 42.1856 48.3431C43.4369 50.5054 45.0457 52.44 47.012 53.8512C43.0794 53.1684 39.6384 51.0516 37.2029 48.0473M52.4416 53.8739C54.4079 52.4628 56.0166 50.5054 57.2679 48.3659C57.3126 48.2749 57.3796 48.1838 57.4243 48.0928H62.2506C59.8151 51.0972 56.3741 53.2139 52.4416 53.8967M63.3455 46.5678H58.2064C59.5023 43.7911 60.2397 40.8094 60.3291 38.3513H65.9151C65.781 41.3785 64.8426 44.2008 63.3232 46.5678" fill="white"/>
<path d="M125.038 34.1861C124.323 33.7764 123.608 33.4122 122.87 33.1163C124.546 32.297 125.82 31.1817 126.713 29.7706C127.697 28.2456 128.188 26.4475 128.188 24.4219C128.188 20.6209 127.183 17.7303 125.194 15.7957C123.205 13.861 120.167 12.8823 116.078 12.8823H100.035C98.9173 12.8823 98.0012 13.2693 97.2639 14.0203C96.5265 14.7714 96.1467 15.7274 96.1467 16.8426V54.3518C96.1467 55.4671 96.5265 56.423 97.2639 57.1741C98.0012 57.9252 98.9397 58.3121 100.035 58.3121H115.899C117.463 58.3121 119.094 58.1301 120.792 57.7659C122.49 57.4017 124.077 56.7189 125.574 55.7175C127.071 54.716 128.255 53.3276 129.171 51.5068C130.087 49.6859 130.534 47.3644 130.534 44.4966C130.534 41.9019 130.02 39.7624 128.97 38.1009C127.92 36.4394 126.602 35.142 125.015 34.2088M118.535 21.8044C119.452 22.6465 119.898 24.0122 119.898 25.8558C119.898 27.4035 119.407 28.6098 118.424 29.4292C117.441 30.2485 116.346 30.6582 115.117 30.6582H104.414V20.5298H114.938C116.435 20.5298 117.619 20.9395 118.535 21.8044ZM120.546 49.2535C119.407 50.3232 117.843 50.8467 115.899 50.8467H104.436V38.3285H115.452C116.346 38.3285 117.329 38.4423 118.379 38.6471C119.429 38.8747 120.345 39.3982 121.127 40.2631C121.909 41.128 122.267 42.5392 122.267 44.4738C122.267 46.5905 121.686 48.1838 120.546 49.2535Z" fill="#008D36"/>
<path d="M163.492 35.9389C162.218 34.9147 160.609 34.0953 158.688 33.4353C156.766 32.7752 154.509 32.229 151.962 31.751C149.996 31.3641 148.342 30.9089 146.935 30.4309C145.527 29.9302 144.455 29.2701 143.717 28.428C142.98 27.5858 142.6 26.5161 142.6 25.2188C142.6 24.149 142.913 23.1931 143.561 22.3509C144.186 21.5316 145.147 20.8715 146.399 20.4163C147.65 19.9383 149.192 19.7107 151.024 19.7107C152.119 19.7107 153.325 19.8928 154.599 20.257C155.872 20.6211 157.079 21.0764 158.219 21.6226C159.358 22.1689 160.274 22.7379 160.967 23.3524C161.481 23.7393 162.062 23.9442 162.687 23.9442C163.671 23.9442 164.52 23.5572 165.235 22.7834C165.95 22.0095 166.329 21.1446 166.329 20.1887C166.329 18.8914 165.704 17.7533 164.475 16.7519C162.978 15.4545 161.056 14.3848 158.71 13.5427C156.364 12.7005 153.794 12.2681 151.024 12.2681C148.097 12.2681 145.415 12.7916 143.002 13.8158C140.589 14.8628 138.667 16.3649 137.237 18.3679C135.807 20.3708 135.092 22.7606 135.092 25.5602C135.092 27.4265 135.383 29.088 135.986 30.5902C136.589 32.0924 137.461 33.3897 138.623 34.4822C139.785 35.5747 141.237 36.4852 142.98 37.2135C144.723 37.9191 146.734 38.4653 149.035 38.8067C151.448 39.1481 153.459 39.6489 155.023 40.2634C156.587 40.9007 157.772 41.6518 158.531 42.5622C159.291 43.4726 159.671 44.5651 159.671 45.8625C159.671 46.955 159.269 47.9109 158.464 48.753C157.66 49.5952 156.587 50.278 155.292 50.756C153.973 51.2567 152.521 51.507 150.957 51.507C148.611 51.507 146.667 51.1656 145.058 50.4601C143.471 49.7773 141.863 48.753 140.254 47.4102C139.628 46.8867 138.891 46.6363 138.087 46.6363C137.014 46.6363 136.143 47.0232 135.45 47.7743C134.757 48.5254 134.4 49.4131 134.4 50.3918C134.4 51.0063 134.556 51.5981 134.847 52.2126C135.137 52.8272 135.562 53.3506 136.12 53.8286C138.288 55.7405 140.567 57.0606 142.935 57.8117C145.304 58.5628 147.985 58.9497 150.957 58.9497C153.929 58.9497 156.543 58.4035 159.023 57.3337C161.503 56.264 163.514 54.6935 165.034 52.6678C166.553 50.6422 167.335 48.2068 167.335 45.4073C167.335 43.1995 167.022 41.3331 166.374 39.7854C165.726 38.2605 164.788 36.9859 163.514 35.9617" fill="#008D36"/>
<path d="M203.465 49.231C202.594 49.0945 201.722 49.2538 200.829 49.6862C199.756 50.2552 198.661 50.6422 197.522 50.847C196.382 51.0746 195.22 51.1657 194.081 51.1657C192.003 51.1657 190.059 50.847 188.271 50.2325C186.484 49.6179 184.942 48.6392 183.624 47.3419C182.305 46.0446 181.278 44.4286 180.54 42.4712C179.803 40.5138 179.423 38.2377 179.423 35.5975C179.423 33.3442 179.758 31.2958 180.406 29.4294C181.054 27.5631 182.037 25.9471 183.311 24.6042C184.585 23.2386 186.126 22.1916 187.936 21.4633C189.746 20.735 191.779 20.3708 194.081 20.3708C195.31 20.3708 196.494 20.5074 197.611 20.7577C198.728 21.0081 199.801 21.395 200.829 21.8502C201.722 22.2827 202.594 22.4648 203.465 22.3737C204.337 22.2827 205.052 21.8502 205.588 21.0764C206.392 20.0749 206.705 18.9824 206.504 17.7761C206.303 16.5698 205.655 15.6821 204.56 15.1131C202.996 14.2938 201.32 13.6565 199.533 13.224C197.745 12.7916 195.913 12.564 194.058 12.564C190.752 12.564 187.69 13.133 184.875 14.2938C182.082 15.4318 179.647 17.0478 177.591 19.0962C175.535 21.1446 173.926 23.58 172.809 26.4023C171.692 29.2246 171.111 32.2973 171.111 35.6203C171.111 39.4668 171.714 42.8581 172.966 45.7714C174.195 48.6848 175.893 51.1201 178.038 53.0775C180.183 55.0349 182.618 56.4916 185.367 57.4931C188.115 58.4945 190.997 58.9952 194.058 58.9952C195.287 58.9952 196.494 58.9042 197.678 58.6994C198.862 58.4945 200.047 58.2214 201.209 57.8572C202.37 57.4931 203.51 57.0151 204.627 56.4688C205.677 55.9453 206.325 55.126 206.571 53.9652C206.795 52.8272 206.504 51.7119 205.655 50.6194C205.052 49.8456 204.337 49.3903 203.465 49.2538" fill="#008D36"/>
<path d="M218.816 14.0203C218.034 13.2693 217.118 12.8823 216.112 12.8823C214.928 12.8823 213.945 13.2693 213.185 14.0203C212.425 14.7714 212.046 15.7274 212.046 16.8426V54.3518C212.046 55.4671 212.403 56.423 213.14 57.1741C213.855 57.9252 214.816 58.3121 216 58.3121C217.073 58.3121 217.989 57.9252 218.816 57.1741C219.62 56.423 220.022 55.4671 220.022 54.3518V16.8426C220.022 15.7274 219.62 14.7714 218.838 14.0203" fill="#008D36"/>
</g>
<defs>
<clipPath id="clip0_78_78">
<rect width="220" height="78" fill="white"/>
</clipPath>
</defs>
</svg>
