<svg width="212" height="56" viewBox="0 0 212 56" fill="none" xmlns="http://www.w3.org/2000/svg">
<g clip-path="url(#clip0_78_120)">
<mask id="mask0_78_120" style="mask-type:luminance" maskUnits="userSpaceOnUse" x="0" y="0" width="212" height="56">
<path d="M211.978 0H0V56H211.978V0Z" fill="white"/>
</mask>
<g mask="url(#mask0_78_120)">
<path d="M165.067 32.3134C164.85 31.1302 164.503 29.8609 164.07 28.7421C163.224 26.4187 161.879 24.3319 160.101 22.5032C158.344 20.6745 156.219 19.2116 153.876 18.222C151.252 17.1678 148.433 16.6085 145.613 16.673C142.707 16.6085 139.887 17.1678 137.198 18.222C134.791 19.2116 132.687 20.6745 130.844 22.5032C129.087 24.3319 127.742 26.4187 126.81 28.8067C125.899 31.1947 125.4 33.7763 125.4 36.3795C125.4 38.9826 125.899 41.4352 126.81 43.8017C128.653 48.5562 132.383 52.2781 137.198 54.2358C139.822 55.29 142.642 55.8493 145.461 55.7848C149.278 55.8493 153.095 54.8812 156.414 52.988C159.32 51.31 161.706 48.8574 163.202 45.8455L163.701 44.8559L154.939 42.4678L154.592 42.9627C150.84 47.8678 143.791 48.7713 138.825 45.071C137.133 43.8017 135.854 42.0591 135.073 40.0153H164.959L165.111 39.3053C165.262 38.8105 165.327 38.3157 165.327 37.8424V36.0998C165.327 34.8305 165.176 33.5827 165.046 32.3134M145.635 25.0203C149.951 25.0203 153.833 27.4728 155.741 31.2592H135.593C137.437 27.4728 141.319 25.0848 145.635 25.0203Z" fill="#333333"/>
<path d="M79.7033 32.3135C79.4864 31.1302 79.1394 29.8609 78.7057 28.7422C77.8598 26.4188 76.5152 24.3319 74.7368 22.5033C72.98 20.6746 70.8546 19.2117 68.5123 18.2221C65.8881 17.1033 63.0686 16.6085 60.2492 16.6085C57.343 16.544 54.5236 17.1033 51.921 18.2221C49.5136 19.2117 47.3882 20.6746 45.5664 22.5033C43.8097 24.3319 42.465 26.4403 41.5325 28.8068C40.6216 31.1948 40.1227 33.7764 40.1227 36.3796C40.1227 38.9827 40.6216 41.4353 41.5325 43.8018C43.441 48.5778 47.193 52.2781 51.921 54.2359C54.5236 55.2901 57.3647 55.8494 60.1841 55.7849C64.0012 55.8494 67.8183 54.8813 71.1366 52.9881C74.0427 51.31 76.3634 48.8575 77.9249 45.8456L78.4237 44.8559L69.6618 42.4679L69.2497 42.9627C65.4977 47.8678 58.4274 48.7714 53.4825 45.0711C51.7909 43.8018 50.5113 42.0592 49.7305 40.0154H79.6166L79.7684 39.3054C79.9202 38.8106 79.9853 38.2513 79.9853 37.7564V35.9923C79.9853 34.723 79.8334 33.4752 79.7033 32.2705M50.1643 31.2593C52.9186 25.7303 59.6419 23.4714 65.2157 26.2036C67.4062 27.2578 69.2497 29.0864 70.3124 31.2593H50.186H50.1643Z" fill="#333333"/>
<path d="M26.0689 25.0848L18.3697 21.9223C14.3357 20.3088 10.5186 18.7598 10.5186 14.8443C10.5186 11.1225 13.8369 8.82052 19.0637 8.82052C20.4734 8.82052 21.8832 9.03566 23.2929 9.37988L23.4447 9.44442H23.5097C23.6399 9.50896 23.7266 9.50896 23.8568 9.59501H23.9218L24.0736 9.65956L24.3556 9.78864L24.5074 9.85318L24.7243 9.91772C24.9412 9.98226 25.158 10.1329 25.2882 10.1974L25.6352 10.4125L25.8521 10.5631L26.1991 10.7783L26.4159 10.9289C26.7629 11.144 27.1316 11.4237 27.4136 11.7034C27.9124 12.1336 28.3245 12.5424 28.6932 13.0372L29.1052 13.532L29.6691 13.3169L37.8021 11.144L37.3033 10.1544C35.7418 7.207 33.4212 4.81899 30.515 3.20546C28.1076 1.87162 25.505 1.03259 22.7507 0.75291C21.5578 0.537773 20.3433 0.408691 19.1505 0.408691C14.1405 0.430205 9.60775 1.89313 6.28949 4.56082C2.90617 7.01338 0.910875 11.0149 0.910875 15.1455C0.910875 21.5996 4.72796 26.2896 12.4923 29.5166L20.1264 32.7437C24.7893 34.7014 28.1944 36.0998 28.1944 40.4456C28.1944 44.7913 24.4423 47.3084 18.4348 47.3084H17.0901C15.9623 47.2439 14.8996 46.9642 13.8369 46.5339L13.6851 46.4694L13.5333 46.4049L13.4032 46.3403L13.273 46.2758H13.208L13.0778 46.2112C12.861 46.1467 12.7308 45.9961 12.4489 45.9315L12.3188 45.867L12.1886 45.8025H12.1236L11.9934 45.5873L11.6464 45.3722L11.4295 45.2216C11.0825 45.0065 10.8006 44.7268 10.4319 44.4471C9.93307 44.0383 9.521 43.5435 9.15231 43.0487L8.71855 42.5539L8.21972 42.769L0.0216675 44.9419L0.520491 45.9315C0.867499 46.6415 1.23619 47.2654 1.64827 47.8247L1.77839 48.0399L1.99527 48.255C3.40499 50.1482 5.24847 51.6972 7.28714 52.8805C9.04387 53.9346 10.9524 54.6231 12.9477 55.0533L13.0128 55.1179H13.0778C14.7695 55.5481 16.5479 55.7418 18.3046 55.7418C24.0303 55.7418 28.9101 54.1928 32.4452 51.1809C35.8285 48.4486 37.8238 44.318 37.8238 39.8862C37.8889 31.1302 31.8813 27.4728 26.0906 25.1063" fill="#333333"/>
<path d="M196.862 55.9355H186.755L178.275 43.307L169.795 55.9355H159.689L173.265 36.6593L159.276 16.8237H169.383L196.862 55.9355Z" fill="#333333"/>
<path d="M112.712 0V19.6204C109.524 17.5121 105.859 16.3934 102.042 16.3934C91.3064 16.3934 82.6095 25.214 82.6095 36.1644C82.6095 47.1149 91.3714 55.9355 102.042 55.9355C105.859 55.9355 109.524 54.8167 112.712 52.7084V55.7849H122.385V0H112.712ZM102.042 25.3C108.115 25.171 113.124 29.8609 113.276 35.8848C113.428 41.9086 108.678 46.8782 102.606 47.0288C96.5332 47.1794 91.5016 42.4679 91.3714 36.4441V36.1644C91.3714 30.2697 96.0994 25.4291 102.042 25.3Z" fill="#333333"/>
<path d="M194.107 0.559111C184.218 0.559111 176.237 8.47613 176.237 18.2864C176.237 22.1373 177.516 25.9237 179.837 29.0217L188.317 16.3286H197.859L185.497 33.8407C194.129 38.5307 204.995 35.4542 209.809 26.8273C214.537 18.2648 211.436 7.4865 202.739 2.71048C200.115 1.31209 197.165 0.537598 194.129 0.537598" fill="#D50045"/>
</g>
</g>
<defs>
<clipPath id="clip0_78_120">
<rect width="212" height="56" fill="white"/>
</clipPath>
</defs>
</svg>
