<svg width="211" height="85" viewBox="0 0 211 85" fill="none" xmlns="http://www.w3.org/2000/svg">
<g clip-path="url(#clip0_51_42)">
<path d="M38.8262 29.0588V7.85439H42.7489V16.4869H50.3272V7.85439H54.2499V29.0709H50.3272V20.1588H42.7489V29.0709H38.8262V29.0588Z" fill="#231F20"/>
<path d="M58.0633 29.0588V7.85439H63.504L69.1391 23.9036H69.212L74.7864 7.85439H80.2271V29.0709H76.3044V13.1676H76.2194L70.8151 29.0709H67.4996L62.0588 13.1676H61.9981V29.0709H58.0754L58.0633 29.0588Z" fill="#231F20"/>
<path d="M105.209 29.0588V7.85439H109.666L118.434 23.2713H118.495V7.85439H122.417V29.0709H118.045L109.204 13.654H109.143V29.0709H105.221L105.209 29.0588Z" fill="#231F20"/>
<path d="M0.522217 52.1842H4.63923C4.73639 52.9624 4.95499 53.5703 5.29504 54.008C5.81726 54.6889 6.55807 55.0293 7.5175 55.0293C8.35547 55.0293 9.03557 54.7618 9.56993 54.2269C10.1043 53.6919 10.3715 53.0232 10.3715 52.2207C10.3715 51.6493 10.25 51.1751 10.0071 50.8103C9.76425 50.4334 9.36347 50.1051 8.82911 49.8133C8.53764 49.6553 7.52964 49.2297 5.78082 48.5488C4.6028 48.0868 3.71624 47.6126 3.1333 47.102C2.55036 46.6035 2.10101 45.9712 1.77311 45.2174C1.44521 44.4636 1.28733 43.6368 1.28733 42.7492C1.28733 41.6185 1.55451 40.5729 2.10101 39.6245C2.63537 38.664 3.40048 37.9223 4.37205 37.3995C5.34362 36.8767 6.37591 36.6092 7.45677 36.6092C8.42834 36.6092 9.3149 36.8037 10.1407 37.1807C10.9544 37.5576 11.6345 38.0317 12.1567 38.591C12.6789 39.1503 13.0676 39.7461 13.3226 40.3905C13.5776 41.0349 13.7355 41.7887 13.7962 42.652H9.80068C9.67923 41.8738 9.48492 41.3145 9.22988 40.9984C8.82911 40.5121 8.24617 40.2689 7.49321 40.2689C6.81311 40.2689 6.26661 40.4756 5.85369 40.8768C5.44077 41.2781 5.23431 41.813 5.23431 42.4696C5.23431 43.1748 5.47721 43.7341 5.96299 44.1475C6.32733 44.4514 7.10458 44.8162 8.3069 45.2174C9.50921 45.6186 10.3715 45.9712 10.9058 46.263C11.7195 46.7008 12.3632 47.1992 12.8247 47.7342C13.2983 48.2814 13.6627 48.9136 13.9177 49.6431C14.1727 50.3726 14.3063 51.1751 14.3063 52.0626C14.3063 54.2876 13.4562 56.0385 11.7681 57.3151C10.5415 58.227 9.13273 58.689 7.52964 58.689C6.71595 58.689 5.91441 58.5553 5.1493 58.3C4.38419 58.0446 3.69195 57.6799 3.09687 57.2178C2.50178 56.7558 2.016 56.2452 1.63952 55.6859C1.26304 55.1266 0.995856 54.5308 0.813687 53.9107C0.680096 53.4487 0.595084 52.8773 0.534361 52.1842H0.522217Z" fill="#231F20"/>
<path d="M34.6485 47.7099C34.6485 46.2387 34.9278 44.8283 35.4743 43.4788C36.0208 42.1413 36.7738 40.9741 37.7332 40.0136C38.6926 39.0409 39.7492 38.2749 40.9151 37.7156C42.421 36.9861 44.0241 36.6214 45.7244 36.6214C47.3032 36.6214 48.7848 36.9253 50.145 37.5333C51.5052 38.1412 52.6468 38.9193 53.5576 39.8555C54.4806 40.7917 55.1971 41.813 55.7194 42.9073C56.4359 44.4028 56.8002 45.9834 56.8002 47.6613C56.8002 48.9136 56.6059 50.093 56.2173 51.1994C55.8287 52.3058 55.3186 53.2907 54.6749 54.1417C54.0313 54.9928 53.2783 55.771 52.3796 56.4519C51.493 57.1449 50.4607 57.6799 49.2949 58.0811C48.129 58.4702 46.9388 58.6647 45.7122 58.6647C44.0484 58.6647 42.5546 58.3486 41.1944 57.7163C39.8464 57.0841 38.7048 56.306 37.7939 55.3698C36.871 54.4336 36.1666 53.4244 35.6686 52.3423C34.9764 50.8468 34.6364 49.3027 34.6364 47.6856L34.6485 47.7099ZM38.5712 47.6856C38.5712 48.7069 38.7534 49.6553 39.1298 50.5307C39.5063 51.4061 39.9921 52.1721 40.5993 52.8165C41.2066 53.4609 41.9474 53.9958 42.8218 54.4092C43.6962 54.8348 44.6556 55.0415 45.7244 55.0415C46.951 55.0415 48.129 54.7254 49.2584 54.081C50.3879 53.4366 51.2744 52.5368 51.9181 51.3696C52.5618 50.2024 52.8775 48.9744 52.8775 47.6856C52.8775 46.3968 52.5618 45.1688 51.9181 44.0016C51.2744 42.8344 50.3879 41.9225 49.2706 41.2781C48.1533 40.6337 46.9631 40.3175 45.7244 40.3175C44.6435 40.3175 43.6719 40.5242 42.8218 40.9376C41.9717 41.351 41.2309 41.886 40.5872 42.5426C39.9557 43.1991 39.4578 43.9773 39.0934 44.8891C38.7291 45.801 38.5591 46.7372 38.5591 47.7099L38.5712 47.6856Z" fill="#231F20"/>
<path d="M81.5023 58.2635V40.7309H77.5796V37.0469H89.372V40.7309H85.4128V58.2635H81.5023Z" fill="#231F20"/>
<path d="M91.6309 52.1842H95.7479C95.8451 52.9624 96.0637 53.5703 96.4037 54.008C96.9259 54.6889 97.6668 55.0293 98.6262 55.0293C99.4641 55.0293 100.144 54.7618 100.679 54.2269C101.213 53.6919 101.48 53.0232 101.48 52.2207C101.48 51.6493 101.359 51.1751 101.104 50.8103C100.861 50.4334 100.46 50.1051 99.9256 49.8133C99.6342 49.6553 98.6262 49.2297 96.8773 48.5488C95.6993 48.0868 94.8128 47.6126 94.2298 47.102C93.6469 46.6035 93.1975 45.9712 92.8696 45.2174C92.5417 44.4636 92.3839 43.6368 92.3839 42.7492C92.3839 41.6185 92.651 40.5729 93.1975 39.6245C93.744 38.664 94.497 37.9223 95.4686 37.3995C96.4401 36.8767 97.4724 36.6092 98.5533 36.6092C99.5249 36.6092 100.411 36.8037 101.237 37.1807C102.063 37.5576 102.731 38.0317 103.253 38.591C103.775 39.1503 104.164 39.7461 104.419 40.3905C104.674 41.0349 104.832 41.7887 104.893 42.652H100.897C100.776 41.8738 100.581 41.3145 100.326 40.9984C99.9256 40.5121 99.3427 40.2689 98.5897 40.2689C97.9096 40.2689 97.3631 40.4756 96.9502 40.8768C96.5373 41.2781 96.3308 41.813 96.3308 42.4696C96.3308 43.1748 96.5737 43.7341 97.0595 44.1475C97.4239 44.4514 98.2011 44.8162 99.4034 45.2174C100.606 45.6186 101.468 45.9712 102.002 46.263C102.816 46.7008 103.448 47.1992 103.921 47.7342C104.395 48.2814 104.759 48.9136 105.014 49.6431C105.269 50.3605 105.403 51.1751 105.403 52.0626C105.403 54.2876 104.553 56.0385 102.865 57.3151C101.65 58.227 100.229 58.689 98.6262 58.689C97.8003 58.689 97.0109 58.5553 96.2458 58.3C95.4807 58.0446 94.8006 57.6799 94.1934 57.2178C93.5983 56.7558 93.1125 56.2452 92.7361 55.6859C92.3596 55.1266 92.0924 54.5308 91.9102 53.9107C91.7766 53.4487 91.6916 52.8773 91.6309 52.1842Z" fill="#231F20"/>
<path d="M4.97928 83.4194L0 66.3489H3.23046L6.18159 78.2764H6.23017L9.15701 66.3489H11.4645L14.3185 78.2764H14.367L17.3425 66.3489H20.5729L15.6058 83.4316H13.0919L10.335 72.1606H10.2743L7.46892 83.4316H4.96713L4.97928 83.4194Z" fill="#231F20"/>
<path d="M22.5161 83.4194V66.3367H31.6852V69.3034H25.6736V73.4737H31.4302V76.4283H25.6736V80.477H31.6852V83.4316H22.5161V83.4194Z" fill="#231F20"/>
<path d="M12.8004 20.4992C13.4198 20.1952 13.9906 19.7819 14.5371 19.2347C15.0714 18.6876 15.5208 18.0067 15.873 17.1678C16.2252 16.341 16.3952 15.4534 16.3952 14.5051C16.3952 13.4473 16.1644 12.4625 15.7151 11.5627C15.3872 10.9062 14.95 10.3104 14.3913 9.75111C13.8327 9.19182 13.2012 8.77843 12.4846 8.48662C11.4523 8.06108 10.1286 7.84222 8.51334 7.84222H2.00385V29.0588H5.92655V11.5262H8.44047C9.31488 11.5262 10.0071 11.6478 10.5172 11.9032C11.0273 12.1585 11.4402 12.5476 11.7438 13.0704C12.0474 13.5932 12.2053 14.1646 12.2053 14.7726C12.2053 15.3805 12.0474 15.9641 11.7438 16.4626C11.4402 16.9611 11.0394 17.3258 10.5658 17.5569C9.92211 17.8608 9.20558 18.0067 8.42833 18.0067H7.3839V23.0039L11.5738 29.0709H16.3223L10.5658 21.253C11.428 21.0585 12.1567 20.8153 12.7761 20.5114L12.8004 20.4992Z" fill="#231F20"/>
<path d="M32.1103 41.1443C31.8431 40.4148 31.4545 39.7704 30.9687 39.2233C30.4829 38.6761 29.9486 38.2384 29.3778 37.9345C28.807 37.6184 28.1512 37.3995 27.4103 37.2658C26.6695 37.132 25.6372 37.0591 24.2892 37.0591H18.9698V58.2756H22.8925V40.7431H24.2892C25.3943 40.7431 26.2202 40.8404 26.7788 41.0349C27.3375 41.2294 27.7868 41.5577 28.1026 42.0197C28.4183 42.4818 28.5762 43.0167 28.5762 43.6247C28.5762 44.5973 28.2483 45.3147 27.6046 45.801C26.9853 46.263 25.8923 46.4941 24.362 46.5184V50.1902C26.4509 50.1902 27.9933 49.9592 29.0013 49.5215C30.0214 49.0717 30.8594 48.33 31.5152 47.2965C32.171 46.263 32.4989 45.0472 32.4989 43.649C32.4989 42.7249 32.3653 41.8981 32.0981 41.1686L32.1103 41.1443Z" fill="#231F20"/>
<path d="M28.9891 7.85439H25.9287L17.1117 29.0588H21.4231L21.4595 28.9737L25.3579 18.9186H25.37L27.4103 13.3987H27.4589L29.8635 19.9034H26.4631L25.03 23.5875H31.2845L33.5312 29.0588H37.8668L28.9891 7.85439Z" fill="#231F20"/>
<path d="M42.7247 66.361H40.2593L33.1669 83.4315H36.6402L36.6645 83.3586L39.81 75.2732L41.4495 70.811H41.4981L43.4412 76.0513H40.6844L39.5306 79.0302H44.5706L46.3802 83.4315H49.8657L42.7247 66.361Z" fill="#231F20"/>
<path d="M94.0477 7.85439H90.9872L82.1703 29.0588H86.4937L86.5302 28.9737L90.4286 18.9186L92.4689 13.3987H92.5296L94.9342 19.9034H91.5216L90.0885 23.5875H96.343L98.5897 29.0588H102.925L94.0477 7.85439Z" fill="#231F20"/>
<path d="M72.2117 49.6917C72.8311 49.3878 73.4019 48.9744 73.9484 48.4273C74.4827 47.8801 74.9321 47.1993 75.2843 46.3603C75.6365 45.5335 75.8065 44.646 75.8065 43.6976C75.8065 42.6398 75.5757 41.655 75.1264 40.7553C74.7985 40.0987 74.3613 39.5029 73.8026 38.9436C73.244 38.3844 72.6125 37.971 71.8959 37.6792C70.8636 37.2536 69.5399 37.0348 67.9247 37.0348H61.4273V58.2513H65.35V40.7188H67.8639C68.7383 40.7188 69.4306 40.8404 69.9407 41.0957C70.4507 41.351 70.8636 41.7401 71.1673 42.2629C71.4709 42.7857 71.6288 43.3572 71.6288 43.9651C71.6288 44.573 71.4709 45.1566 71.1673 45.6551C70.8636 46.1536 70.4629 46.5184 69.9892 46.7494C69.3456 47.0534 68.629 47.1993 67.8518 47.1993H66.8074V52.1964L70.9972 58.2635H75.7458L69.9892 50.4456C70.8515 50.251 71.5802 50.0079 72.1996 49.7039L72.2117 49.6917Z" fill="#231F20"/>
<path d="M59.9335 76.5377C60.4315 76.2945 60.893 75.9541 61.3302 75.5164C61.7674 75.0787 62.1196 74.5194 62.3989 73.8507C62.6782 73.1819 62.8239 72.4646 62.8239 71.7108C62.8239 70.8597 62.6418 70.0694 62.2774 69.3399C62.0103 68.817 61.6581 68.3307 61.2087 67.8808C60.7594 67.431 60.2493 67.0905 59.6785 66.8595C58.8405 66.5191 57.7839 66.3367 56.4845 66.3367H51.2502V83.4194H54.4077V69.3034H56.4359C57.1403 69.3034 57.6989 69.4007 58.1118 69.6073C58.5248 69.814 58.8527 70.118 59.1077 70.5436C59.3506 70.9691 59.4842 71.419 59.4842 71.9175C59.4842 72.416 59.3627 72.878 59.1077 73.2792C58.8648 73.6804 58.549 73.9722 58.1604 74.1546C57.6382 74.3978 57.0674 74.5194 56.4359 74.5194H55.5979V78.5438L58.962 83.4194H62.7875L58.1483 77.1213C58.8405 76.9632 59.4356 76.7687 59.9214 76.5255L59.9335 76.5377Z" fill="#231F20"/>
<path d="M210.381 1.09427C209.761 0.303966 208.802 -0.0972639 207.794 0.0243209L143.002 7.81791V7.8787C142.857 7.89086 142.699 7.86655 142.541 7.90302C141.727 8.14619 141.059 8.7298 140.719 9.50794L109.678 80.9755C109.253 81.9604 109.411 83.0911 110.079 83.9179C110.637 84.6109 111.463 84.9878 112.325 84.9878C112.507 84.9878 112.677 84.9635 112.86 84.9392L184.61 70.653C185.436 70.4828 186.152 69.9599 186.565 69.2304C186.638 69.1088 186.638 68.963 186.687 68.8292L186.747 68.8535L210.818 3.8664C211.17 2.9302 211 1.87241 210.381 1.09427ZM168.737 24.3778L151.297 12.584L195.856 7.22215L168.725 24.3778H168.737ZM166.344 29.6789L179.06 62.8229L156.204 53.9107L147.921 17.2164L166.356 29.6789H166.344ZM154.042 59.224L173.862 66.9568L127.02 76.2824L154.042 59.224ZM184.003 59.7347L172.21 28.9858L202.511 9.83622L184.015 59.7468L184.003 59.7347ZM142.577 19.5995L150.496 54.6767L118.592 74.8112L142.577 19.5995Z" fill="#CF181F"/>
<path d="M70.3414 83.5167V66.5434H73.4869V80.5865H78.6483V83.5167H70.3414Z" fill="#231F20"/>
<path d="M81.6966 83.5167V69.4858H78.5511V66.5434H87.9875V69.4858H84.8299V83.5167H81.6966Z" fill="#231F20"/>
<path d="M102.731 83.5167V80.477H105.767V83.5167H102.731Z" fill="#231F20"/>
<path d="M102.597 71.6621C102.245 70.6895 101.772 69.8748 101.201 69.2304C100.63 68.586 99.9864 68.0632 99.282 67.6742C98.5776 67.2729 97.8125 66.9933 96.9745 66.8231C96.1487 66.6528 94.9464 66.5556 93.3676 66.5556H89.5177V83.5288H92.6632V80.5986V69.5101H93.2583C94.9949 69.5101 96.2944 69.7168 97.1567 70.118C98.0189 70.5192 98.6869 71.1515 99.197 72.0269C99.6949 72.9023 99.9499 73.9115 99.9499 75.0787C99.9499 75.9298 99.8163 76.6714 99.5734 77.3158C99.3184 77.9602 99.0269 78.4709 98.6869 78.86C98.3468 79.249 97.9582 79.5652 97.521 79.8205C97.0838 80.0758 96.4766 80.2825 95.6872 80.4406C95.2621 80.5257 94.6306 80.5743 93.9019 80.5865V83.5288C95.0071 83.5288 95.8086 83.4802 96.2701 83.4194C97.351 83.2613 98.274 82.9695 99.0269 82.5561C99.7799 82.1428 100.472 81.5348 101.104 80.7324C101.735 79.9299 102.233 79.0059 102.597 77.9724C102.962 76.9389 103.156 75.8568 103.156 74.7382C103.156 73.6804 102.974 72.6591 102.622 71.6865L102.597 71.6621Z" fill="#231F20"/>
</g>
<defs>
<clipPath id="clip0_51_42">
<rect width="211" height="85" fill="white"/>
</clipPath>
</defs>
</svg>
