<svg width="90" height="88" viewBox="0 0 90 88" fill="none" xmlns="http://www.w3.org/2000/svg">
<g clip-path="url(#clip0_78_139)">
<path d="M45 10.6729C26.1975 10.6729 11.0402 25.5424 11.0402 43.961C11.0402 62.3797 26.1975 77.2492 45 77.2492C63.8024 77.2492 78.9597 62.3278 78.9597 43.961C78.9597 25.5943 63.75 10.6729 45 10.6729Z" fill="#3F9C35"/>
<path d="M53.9948 22.4078L45.6556 30.542V65.6177H57.299V41.7849L64.9301 49.2715L73.1644 41.215L53.9948 22.4337V22.4078ZM16.8357 41.189L25.0175 49.2456L32.7011 41.7071V65.5918H44.3444V30.5679L36.0053 22.356L16.8357 41.189Z" fill="white"/>
<path d="M43.3217 2.63043e-05L43.2692 1.01033L45.2098 1.06214L45.1049 5.98413H46.4685L46.5734 1.08805H48.4615L48.514 0.0777419L43.3217 -0.0258789V2.63043e-05ZM51.2413 0.41451L50.1661 6.24318L54.1783 6.99443L54.3357 6.08775L51.6346 5.62146L51.9493 3.98943L54.4406 4.40391L54.5979 3.49723L52.1066 3.08275L52.3689 1.52843L55.0175 1.99473L55.1748 1.08805L51.215 0.388604L51.2413 0.41451ZM35.1399 1.03623C34.7465 1.03623 34.3269 1.13986 34.0122 1.21757C32.1766 1.70977 31.0752 3.23818 31.6259 5.10335C32.0979 7.02034 33.75 7.69387 35.6381 7.17577C36.1364 7.07215 36.6608 6.86491 37.1066 6.52814L36.792 5.62146C36.4248 5.88051 36.0315 6.08775 35.6119 6.21728C34.3007 6.52814 33.3304 5.95822 33.0157 4.74068C32.701 3.52314 33.2255 2.46102 34.4843 2.15016C34.9301 2.04654 35.4021 1.99473 35.7955 2.04654L35.5857 1.08805C35.5857 1.08805 35.3234 1.08805 35.1923 1.08805L35.1399 1.03623ZM57.9021 1.76158L58.7675 5.15516L55.5682 7.27939L56.9843 7.8234L59.2657 6.06185L59.8689 8.88551L61.3899 9.40362L60.4196 5.72508L63.3304 3.70447L61.9668 3.23818L59.9213 4.8184L59.3706 2.27968L57.9021 1.73568V1.76158ZM27.9545 3.23818L26.6958 3.75628L29.1346 9.27409L30.3671 8.75599L27.9283 3.23818H27.9545ZM65.035 4.50753L64.4843 5.46603L66.1626 6.37271L63.6713 10.673L64.8776 11.2947L67.3689 7.04624L68.9948 7.95293L69.5455 7.04624L65.0612 4.50753H65.035ZM23.549 5.25878L22.5262 5.8287L25.1748 10.0253L20.6119 6.99443L18.8811 8.05655L22.1329 13.1081L23.1556 12.5122L20.507 8.3156L25.0437 11.3465L26.722 10.2844L23.5227 5.23288L23.549 5.25878ZM71.6958 8.60056L67.972 13.3671L69.0472 14.1702L72.771 9.37771L71.6958 8.57465V8.60056ZM14.8427 11.2947L13.5315 12.5122L16.0227 18.3927L16.993 17.5379L16.3374 16.0613L18.2255 14.2997L19.6941 15.051L20.7168 14.0925L14.8164 11.2688L14.8427 11.2947ZM75.5507 11.6833L71.2238 15.9317L74.0297 18.7036L74.8427 17.9523L72.9545 16.139L76.521 12.6418L75.5507 11.6833ZM14.7902 12.5381L17.4388 13.8593L15.9178 15.2323L14.7902 12.5381ZM10.0699 16.4498C9.57168 16.7607 9.09965 17.3047 8.75874 17.771C7.63112 19.2476 7.73601 21.1128 9.30944 22.2267C10.9353 23.3924 12.6661 22.9779 13.8462 21.3718C14.292 20.776 14.6066 20.1543 14.8164 19.4548L12.3776 17.7451L11.25 19.3512L11.958 19.8693L12.4563 19.2217L13.479 19.9729C13.4266 20.2838 13.2692 20.5688 13.0332 20.8278C12.2727 21.8899 11.1451 21.7863 10.1748 21.0869C9.0472 20.3356 8.86364 19.1181 9.67657 18.056C9.99126 17.6415 10.3846 17.2529 10.8566 17.0457L10.0437 16.398L10.0699 16.4498ZM80.0874 16.4498L75.1573 19.9988L77.5962 23.1852L78.3566 22.6671L76.7308 20.491L78.0682 19.4807L79.5892 21.5014L80.3496 20.9832L78.8287 18.9626L80.1399 18.056L81.7133 20.1284L82.4738 19.6103L80.0874 16.4757V16.4498ZM6.05769 23.5479C5.34965 23.5479 4.82517 24.1696 4.48427 24.8431L3.40909 27.071L8.88986 29.6097L9.49301 28.4439L7.21154 27.3818L7.42133 26.9674C7.68357 26.3715 7.89336 26.3456 8.54895 26.3715L10.3846 26.5788L11.0402 25.2576L8.75874 25.1022C8.20804 25.0504 7.89336 25.154 7.55245 25.5685C7.76224 24.8172 7.55245 24.0401 6.79196 23.7033C6.52972 23.5738 6.26748 23.522 6.03147 23.522M5.9528 24.869C5.9528 24.869 6.21503 24.869 6.3986 24.9467C7.0542 25.2576 6.9493 25.9052 6.66084 26.4752L6.3986 26.9933L4.77273 26.242L5.08741 25.6462C5.2972 25.2058 5.55944 24.869 5.9528 24.8172M85.3059 27.1746C85.1486 27.1746 85.0175 27.2264 84.8601 27.2782C84.0997 27.5373 83.8899 28.1849 83.8374 28.988L83.785 29.6097C83.785 30.076 83.785 30.7754 83.3392 30.9308C82.6836 31.1381 82.3164 30.6718 82.0804 30.1278C81.8706 29.5838 81.7657 29.0139 81.8706 28.418L80.8479 28.7289C80.9004 29.3765 81.0577 29.9465 81.2937 30.5423C81.7395 31.6562 82.6049 32.6147 83.8899 32.1225C84.7552 31.8116 84.965 31.1122 84.965 30.2573V29.5579C84.965 29.1434 85.0175 28.5476 85.4108 28.4439C85.9615 28.2367 86.3287 28.8066 86.5385 29.2988C86.6958 29.7133 86.8007 30.2055 86.7483 30.6718L87.7185 30.3609C87.6661 29.8946 87.5612 29.3506 87.3252 28.8843C87.0105 28.0036 86.3025 27.0451 85.2797 27.1228L85.3059 27.1746ZM3.88112 30.5941C2.6486 30.6718 1.70455 31.423 1.33741 32.796C0.839161 34.6094 1.80944 35.9306 3.61888 36.3969C5.45455 36.8631 6.92308 36.1896 7.47378 34.3244C7.97203 32.5111 6.97552 31.1899 5.19231 30.7236C4.72028 30.5941 4.3007 30.5682 3.88112 30.5941ZM4.06469 31.9412C4.32692 31.9412 4.58916 31.993 4.82517 32.0707C5.79545 32.3297 6.87063 32.9774 6.55594 34.1431C6.24126 35.257 4.98252 35.3088 4.01224 35.1016C3.04196 34.8425 1.96678 34.1431 2.28147 33.0292C2.51748 32.1484 3.27797 31.9152 4.06469 31.9412ZM88.5839 32.7442L87.5087 32.9515L87.8759 34.8166L82.9458 35.7751L83.208 37.0963L88.1381 36.1378L88.5052 37.9512L89.5804 37.7439L88.5577 32.7442H88.5839ZM83.785 39.7127L83.8374 41.0339L85.3584 41.5002L85.4633 44.0389L83.9423 44.6347L83.9948 46.0077L90 43.5208L89.9475 41.7592L83.785 39.6868V39.7127ZM86.3287 41.7592L89.1346 42.6659L86.3811 43.728L86.3287 41.7592ZM4.93007 42.8731L4.98252 45.4896L0 45.5932V46.9144L6.11014 46.7589L6.00524 42.8731H4.93007ZM83.8374 47.6656L83.6801 48.8314L88.5577 49.6344L83.3129 51.0074L82.9983 52.9244L89.0035 53.8829L89.2133 52.7689L84.2832 51.9659L89.5804 50.5411L89.8427 48.6241L83.8374 47.6656ZM6.16259 48.6241L0.629371 52.0177L1.02273 53.7274L7.47378 54.7895L7.21154 53.5202L5.58566 53.2611L5.08741 50.7742L6.45105 49.9712L6.18881 48.65L6.16259 48.6241ZM4.22203 51.2146L4.61538 53.1834L1.67832 52.7171L4.22203 51.2405V51.2146ZM82.3164 55.3595L81.5559 57.2246C80.8479 59.0898 81.2937 60.6182 83.2343 61.3177C85.1224 62.0689 86.486 61.3695 87.1941 59.5561L88.007 57.4837L82.3164 55.3595ZM7.18531 56.4993C6.92308 56.4475 6.63462 56.4993 6.29371 56.6288C5.53322 56.8879 5.32343 57.6391 5.48077 58.3645C5.03497 57.7168 4.40559 57.5096 3.69755 57.7686C2.62238 58.1831 2.67483 59.2452 3.04196 60.1519L3.95979 62.4316L9.5979 60.2037L8.78496 58.1831C8.47028 57.3542 7.97203 56.577 7.18531 56.4734M82.6836 56.8879L86.6434 58.3645L86.3811 59.0121C85.9353 60.1778 84.8601 60.4369 83.7325 60.0224C82.4213 59.5561 82.0017 58.6494 82.4738 57.3801L82.6836 56.9138V56.8879ZM7.21154 57.8205C7.65734 57.8723 7.9458 58.3386 8.10315 58.753L8.31294 59.3489L6.52972 60.0483L6.37238 59.5302C6.11014 58.9344 5.92657 58.209 6.76573 57.95C6.84441 57.8982 6.92308 57.8982 7.02797 57.8723C7.10664 57.8723 7.15909 57.8723 7.23776 57.8723L7.21154 57.8205ZM4.77273 58.9085C5.16608 58.9603 5.45455 59.323 5.61189 59.7115L5.82168 60.3592L4.1958 61.0068L3.93357 60.3074C3.72378 59.7634 3.72378 59.1934 4.32692 58.9862C4.48427 58.9085 4.64161 58.9085 4.77273 58.9085ZM79.9825 61.1363L79.2745 62.3021L80.2972 63.5196L78.9336 65.6956L77.3601 65.3848L76.5996 66.5505L83.0507 67.7162L83.9685 66.1619L79.9563 61.1104L79.9825 61.1363ZM9.67657 63.0274C9.09965 63.0533 8.52273 63.2606 7.91958 63.6491C6.29371 64.6076 5.79545 66.136 6.84441 67.794C7.86713 69.3224 9.54545 69.6073 11.1189 68.597C12.6923 67.5867 13.243 66.1101 12.1416 64.4522C11.5122 63.4678 10.6206 63.0015 9.67657 63.0533M80.9528 64.219L82.7885 66.4987L79.8514 65.9029L80.9266 64.1931L80.9528 64.219ZM10.0699 64.2968C10.5682 64.2968 11.0402 64.4522 11.3549 64.9444C11.958 65.9029 11.1451 66.8614 10.3322 67.3795C9.46678 67.8976 8.20804 68.2344 7.63112 67.2241C6.97552 66.2137 7.78846 65.3071 8.65385 64.789C9.0472 64.5299 9.57168 64.3227 10.0699 64.2968ZM75.6556 67.7162L74.7902 68.6747L76.6783 70.3327L76.3636 70.6954C75.9178 71.1616 75.708 71.1616 75.1311 70.9544L73.4004 70.255L72.4301 71.3171L74.5542 72.1201C75.0525 72.2756 75.4196 72.3274 75.8654 71.9647C75.4196 72.6641 75.4196 73.4413 76.0752 73.9853C76.9406 74.7884 77.9633 74.2962 78.6189 73.519L80.2972 71.7057L75.708 67.7162H75.6556ZM14.4493 67.8717L13.6364 68.5711L15.3671 70.5399L11.6434 73.7781L12.5087 74.7884L17.1241 70.799L14.4755 67.8717H14.4493ZM77.3864 70.9026L78.6976 72.0683L78.2517 72.5346C77.8059 73.0009 77.3339 73.3377 76.7832 72.8455C76.2325 72.431 76.5734 71.7834 76.9406 71.3689L77.3864 70.9026ZM71.0402 72.6123L69.4143 73.8299C67.8409 75.0474 67.4213 76.6017 68.7063 78.182C69.9388 79.7104 71.4598 79.8658 73.0332 78.6482L74.8164 77.2753L71.014 72.6123H71.0402ZM18.75 72.7678L16.9143 75.0474L18.5402 76.265L19.0909 75.5655L18.4353 75.0992L19.2483 74.0889C19.5629 74.1926 19.8514 74.348 20.1136 74.5552C21.1364 75.3065 21.0315 76.4722 20.271 77.353C19.4056 78.4151 18.2255 78.5187 17.1766 77.7157C16.7308 77.4048 16.3636 76.9644 16.1538 76.4981L15.4458 77.3012C15.8129 77.7675 16.3112 78.2597 16.8094 78.6223C18.278 79.7363 20.1661 79.7363 21.3724 78.2597C22.6049 76.6795 22.2378 74.9697 20.7168 73.804C20.1136 73.3377 19.4843 73.0009 18.7762 72.7419M70.5682 74.1407L73.1643 77.3789L72.6136 77.7934C71.6434 78.5964 70.6206 78.2597 69.8601 77.3271C68.9423 76.265 69.0996 75.2547 70.1748 74.3998L70.5682 74.1407ZM26.0402 80.4098L25.4895 81.5237L26.722 82.1195L27.2727 81.0056L26.014 80.4098H26.0402ZM63.6713 80.4098L62.3864 81.0056L62.9371 82.0677L64.1958 81.5496L63.6976 80.4357L63.6713 80.4098ZM34.7727 80.7725C33.4615 80.8761 32.3339 81.6792 31.993 83.078C31.4948 85.0468 32.5437 86.4198 34.4843 86.912C35.1923 87.1192 35.9003 87.1711 36.6608 87.1192L37.4213 84.2438L35.4283 83.7775L35.2185 84.6323L36.0315 84.8396L35.7168 86.1089C35.4021 86.1089 35.0612 86.1089 34.7465 86.0053C33.514 85.6945 33.1206 84.6323 33.3829 83.4666C33.6976 82.1973 34.799 81.5496 36.0839 81.9382C36.6346 82.0418 37.1066 82.2491 37.5524 82.6376L37.8147 81.6273C37.3164 81.3683 36.6084 81.0833 36.0315 80.9279C35.7955 80.8761 35.5857 80.8243 35.3759 80.7984C35.1923 80.7984 34.9825 80.7984 34.799 80.7984L34.7727 80.7725ZM56.3024 80.7725C55.9091 80.7725 55.542 80.8761 55.1748 80.9538C54.1521 81.2129 52.9458 81.9641 53.2867 83.1817C53.4965 83.9329 54.0997 84.2438 54.8601 84.3474L55.5157 84.451C56.014 84.5028 56.6434 84.5546 56.7745 84.9691C56.9318 85.6167 56.3811 85.9276 55.9091 86.083C55.3059 86.1867 54.7815 86.2385 54.1783 86.1348L54.3881 87.0933C54.9913 87.1451 55.6469 87.0415 56.2238 86.8861C57.3514 86.6271 58.4003 85.824 58.0594 84.6064C57.7972 83.6998 57.1416 83.4925 56.3287 83.3889L55.6206 83.2853C55.1748 83.2853 54.6503 83.1817 54.5455 82.819C54.3881 82.2491 55.0175 81.9123 55.5157 81.8087C55.9615 81.7051 56.4336 81.6533 56.8794 81.7051L56.722 80.7984C56.5909 80.7984 56.4598 80.7984 56.3287 80.7984L56.3024 80.7725ZM51.5035 81.731L46.3636 82.2491L46.4685 83.3112L48.3566 83.1039L48.8287 88L50.1923 87.8964L49.6941 83.0003L51.5822 82.7931L51.4773 81.731H51.5035ZM42.5087 81.8864C40.5682 81.7828 39.4143 82.9485 39.3094 84.7619C39.2045 86.6271 40.1224 87.8964 42.0629 88C43.951 88.1555 45.1573 86.9897 45.2622 85.1245C45.3671 83.2594 44.3969 81.99 42.5087 81.8864ZM42.4038 82.7931C43.6364 82.8967 43.9248 84.0624 43.8724 85.0209C43.8199 86.0312 43.3741 87.1451 42.1416 87.0933C41.014 87.0415 40.6731 85.824 40.7255 84.8655C40.778 83.907 41.2762 82.7413 42.4038 82.7931Z" fill="black"/>
</g>
<defs>
<clipPath id="clip0_78_139">
<rect width="90" height="88" fill="white"/>
</clipPath>
</defs>
</svg>
